<svg xmlns="http://www.w3.org/2000/svg" width="600.00018" height="494.99982" viewBox="0 0 158.75004 130.96871">
  <g transform="matrix(.977 0 0 .97666 -15.20726335 -45.3379084)">
    <path style="font-variation-settings:normal;opacity:1;vector-effect:none;fill:#d3b568;fill-opacity:1;stroke:#000;stroke-width:.264583;stroke-linecap:butt;stroke-linejoin:miter;stroke-miterlimit:4;stroke-dasharray:none;stroke-dashoffset:0;stroke-opacity:1;stop-color:#000;stop-opacity:1" d="M102.51984 46.562015c2.97481.193228 5.77142.518268 8.30906.900205l-.76275 4.305678c3.2051.450895 5.86734 1.00317 7.9406 1.508953l1.1219-4.217313c3.23007.766681 5.15265 1.400429 5.15265 1.400429l-5.59862 16.725077s-12.46599-2.976562-21.874118-2.976562c-9.408122 0-21.874633 2.976562-21.874633 2.976562l-5.599142-16.725077s1.922587-.633748 5.152658-1.400429l1.121894 4.217313c2.073251-.505783 4.735502-1.058058 7.940601-1.508953l-.762744-4.305678c2.537703-.381961 5.334286-.706985 8.309054-.900205l.274918 4.444174c1.726901-.09629 3.539771-.152447 5.436878-.152447 1.897108.000002 3.709984.05616 5.436874.152447z" transform="translate(.0001188)"/>
    <path style="font-variation-settings:normal;opacity:1;vector-effect:none;fill:none;fill-opacity:1;stroke:#000;stroke-width:.264583;stroke-linecap:butt;stroke-linejoin:miter;stroke-miterlimit:4;stroke-dasharray:none;stroke-dashoffset:0;stroke-opacity:1;stop-color:#000;stop-opacity:1" d="m101.99355 55.075296-.2727 4.408707m15.2321-2.244484-1.19996 4.512341m-6.4079-5.91176-.8209 4.636091m4.90188-8.150112-.77958 4.039621m-15.838332-5.512012v4.117989m-20.14503 2.267842 1.199965 4.512341m6.407898-5.91176.820899 4.636091m-4.901878-8.150112.779576 4.039621m10.65317-1.290404.272704 4.408707M122.9495 54.713456s-1.75748-.660694-4.94275-1.436605m-7.9406-1.508953c-2.33718-.329095-4.96635-.602009-7.82123-.761709m19.3843 7.630286s-9.68244-3.664798-24.82107-3.664798c-15.138642 0-24.821062 3.664798-24.821062 3.664798m-1.320502-3.923019s1.757487-.660694 4.942752-1.436605m7.940601-1.508953c2.33718-.329095 4.966347-.602009 7.821226-.761709" transform="translate(.0001188)"/>
    <path style="font-variation-settings:normal;opacity:1;vector-effect:none;fill:#d3b568;fill-opacity:1;stroke:#000;stroke-width:1;stroke-linecap:butt;stroke-linejoin:miter;stroke-miterlimit:4;stroke-dasharray:none;stroke-dashoffset:0;stroke-opacity:1;stop-color:#000;stop-opacity:1" d="M365.88867 223.27344c-55.90643 0-91.66211 13.74804-91.66211 13.74804l1.33985 3.75s34.41583-13.47851 90.32226-13.47851c55.90644 0 90.32422 13.47851 90.32422 13.47851l1.33984-3.75s-35.75762-13.74804-91.66406-13.74804zm0 17.41211c-48.6743 0-86.03711 13.21093-86.03711 13.21093l1.33985 3.75s35.75511-12.94336 84.69726-12.94336c48.94216 0 84.69922 12.94336 84.69922 12.94336l1.33984-3.75s-37.36475-13.21093-86.03906-13.21093z" transform="scale(.26458)"/>
    <circle style="opacity:1;fill:#e41a27;fill-opacity:1;stroke:#000;stroke-width:.264583;stroke-linejoin:bevel;stroke-miterlimit:4;stroke-dasharray:none;paint-order:fill markers stroke" cx="96.808044" cy="61.917225" r="1.4174107"/>
    <circle style="opacity:1;fill:#3973c6;fill-opacity:1;stroke:#000;stroke-width:.264583;stroke-linejoin:bevel;stroke-miterlimit:4;stroke-dasharray:none;paint-order:fill markers stroke" cx="85.398003" cy="62.6968" r="1.4174107"/>
    <circle style="opacity:1;fill:#e41a27;fill-opacity:1;stroke:#000;stroke-width:.264583;stroke-linejoin:bevel;stroke-miterlimit:4;stroke-dasharray:none;paint-order:fill markers stroke" cx="74.413071" cy="65.1064" r="1.4174107"/>
    <circle style="opacity:1;fill:#58c957;fill-opacity:1;stroke:#000;stroke-width:.264583;stroke-linejoin:bevel;stroke-miterlimit:4;stroke-dasharray:none;paint-order:fill markers stroke" cx="79.303131" cy="63.857201" r="1.0071993"/>
    <circle style="opacity:1;fill:#58c957;fill-opacity:1;stroke:#000;stroke-width:.264583;stroke-linejoin:bevel;stroke-miterlimit:4;stroke-dasharray:none;paint-order:fill markers stroke" cx="91.705475" cy="62.085438" r="1.0071993"/>
    <circle style="opacity:1;fill:#3973c6;fill-opacity:1;stroke:#000;stroke-width:.264583;stroke-linejoin:bevel;stroke-miterlimit:4;stroke-dasharray:none;paint-order:fill markers stroke" cx="-108.21832" cy="62.6968" r="1.4174107" transform="scale(-1 1)"/>
    <circle style="opacity:1;fill:#e41a27;fill-opacity:1;stroke:#000;stroke-width:.264583;stroke-linejoin:bevel;stroke-miterlimit:4;stroke-dasharray:none;paint-order:fill markers stroke" cx="-119.20325" cy="65.1064" r="1.4174107" transform="scale(-1 1)"/>
    <circle style="opacity:1;fill:#58c957;fill-opacity:1;stroke:#000;stroke-width:.264583;stroke-linejoin:bevel;stroke-miterlimit:4;stroke-dasharray:none;paint-order:fill markers stroke" cx="-114.31319" cy="63.857201" r="1.0071993" transform="scale(-1 1)"/>
    <circle style="opacity:1;fill:#58c957;fill-opacity:1;stroke:#000;stroke-width:.264583;stroke-linejoin:bevel;stroke-miterlimit:4;stroke-dasharray:none;paint-order:fill markers stroke" cx="-101.91084" cy="62.085438" r="1.0071993" transform="scale(-1 1)"/>
    <path style="color:#000;font-style:normal;font-variant:normal;font-weight:400;font-stretch:normal;font-size:medium;line-height:normal;font-family:sans-serif;font-variant-ligatures:normal;font-variant-position:normal;font-variant-caps:normal;font-variant-numeric:normal;font-variant-alternates:normal;font-variant-east-asian:normal;font-feature-settings:normal;font-variation-settings:normal;text-indent:0;text-align:start;text-decoration:none;text-decoration-line:none;text-decoration-style:solid;text-decoration-color:#000;letter-spacing:normal;word-spacing:normal;text-transform:none;writing-mode:lr-tb;direction:ltr;text-orientation:mixed;dominant-baseline:auto;baseline-shift:baseline;text-anchor:start;white-space:normal;shape-padding:0;shape-margin:0;inline-size:0;clip-rule:nonzero;display:inline;overflow:visible;visibility:visible;isolation:auto;mix-blend-mode:normal;color-interpolation:sRGB;color-interpolation-filters:linearRGB;solid-color:#000;solid-opacity:1;vector-effect:none;fill:#d3b568;fill-opacity:1;fill-rule:nonzero;stroke:#000;stroke-width:.999999;stroke-linecap:butt;stroke-linejoin:miter;stroke-miterlimit:4;stroke-dasharray:none;stroke-dashoffset:0;stroke-opacity:1;color-rendering:auto;image-rendering:auto;shape-rendering:auto;text-rendering:auto;enable-background:accumulate;stop-color:#000" d="M230.53516 544.6875c-3.48215 4.01783-7.63477 4.82227-7.63477 4.82227l-.93555 1.875 3.21289.66796s4.01842-4.15006 6.96485-5.35546zm270.70703 0-1.60742 2.00977c2.94644 1.2054 6.96484 5.35546 6.96484 5.35546l3.21289-.66796-.93555-1.875s-4.15261-.80444-7.63476-4.82227zm-236.15235 4.95508-3.61718 5.49219s7.36691.40038 11.38476-2.41211c4.01786-2.8125-7.76758-3.08008-7.76758-3.08008zm201.59766 0s-11.78544.26758-7.76758 3.08008c4.01783 2.81249 11.38477 2.41211 11.38477 2.41211z" transform="scale(.26458)"/>
    <path style="font-variation-settings:normal;vector-effect:none;fill:#3973c6;fill-opacity:1;stroke:#000;stroke-width:.264583;stroke-linecap:butt;stroke-linejoin:miter;stroke-miterlimit:4;stroke-dasharray:none;stroke-dashoffset:0;stroke-opacity:1;stop-color:#000" d="M124.51755 147.2926c-2.19699-3.26005-5.70297-2.60563-7.51228-5.45704-1.65913-2.61471-.33825-5.04221 1.20764-6.36329 0 0 3.68243-2.49552 7.43857-1.36159 0 0-.41407 2.26031 2.83482 3.68527 3.24889 1.42496 5.05358 2.80748 5.51436 3.76701.46077.95953.14414 1.85152-1.02111 2.4619l-1.8765 1.20807zM69.09877 147.2926c2.196987-3.26005 5.702965-2.60563 7.51228-5.45704 1.659126-2.61471.338245-5.04221-1.207637-6.36329 0 0-3.68243-2.49552-7.438569-1.36159 0 0 .41407 2.26031-2.834822 3.68527s-5.053584 2.80748-5.514359 3.76701c-.460774.95953-.144141 1.85152 1.021111 2.4619l1.876491 1.20807z"/>
    <path style="font-variation-settings:normal;vector-effect:none;fill:#d3b568;fill-opacity:1;stroke:#000;stroke-width:.264583;stroke-linecap:butt;stroke-linejoin:miter;stroke-miterlimit:4;stroke-dasharray:none;stroke-dashoffset:0;stroke-opacity:1;stop-color:#000" d="M80.55618 148.71001c-6.8819-.55615-9.86915-3.11291-15.875-4.8192-5.97956-1.69882-8.99168-2.00503-11.41016-2.12611l1.48828-1.48829c1.78486.14174 6.93114.53324 11.83538 2.05525 4.90424 1.52201 7.24769 3.73408 13.4654 4.25223 6.21771.51815 9.96241-2.33873 16.74808-2.33873 6.78567 0 10.53037 2.85688 16.74808 2.33873 6.21771-.51815 8.56116-2.73022 13.4654-4.25223 4.90424-1.52201 10.05052-1.91351 11.83538-2.05525l1.48828 1.48829c-2.41848.12108-5.43059.42729-11.41016 2.12611-6.00585 1.70629-8.9931 4.26305-15.875 4.8192-6.75279.54572-9.65964-.92132-16.25198-.92132s-9.49919 1.46704-16.25198.92132z"/>
    <path style="color:#000;font-style:normal;font-variant:normal;font-weight:400;font-stretch:normal;font-size:medium;line-height:normal;font-family:sans-serif;font-variant-ligatures:normal;font-variant-position:normal;font-variant-caps:normal;font-variant-numeric:normal;font-variant-alternates:normal;font-variant-east-asian:normal;font-feature-settings:normal;font-variation-settings:normal;text-indent:0;text-align:start;text-decoration:none;text-decoration-line:none;text-decoration-style:solid;text-decoration-color:#000;letter-spacing:normal;word-spacing:normal;text-transform:none;writing-mode:lr-tb;direction:ltr;text-orientation:mixed;dominant-baseline:auto;baseline-shift:baseline;text-anchor:start;white-space:normal;shape-padding:0;shape-margin:0;inline-size:0;clip-rule:nonzero;display:inline;overflow:visible;visibility:visible;isolation:auto;mix-blend-mode:normal;color-interpolation:sRGB;color-interpolation-filters:linearRGB;solid-color:#000;solid-opacity:1;vector-effect:none;fill:#d3b568;fill-opacity:1;fill-rule:nonzero;stroke:#000;stroke-width:.999999;stroke-linecap:butt;stroke-linejoin:miter;stroke-miterlimit:4;stroke-dasharray:none;stroke-dashoffset:0;stroke-opacity:1;color-rendering:auto;image-rendering:auto;shape-rendering:auto;text-rendering:auto;enable-background:accumulate;stop-color:#000" d="M365.88867 549.14453c-5.89599 2.65164-9.68359 9.4707-9.68359 9.4707s3.5978 4.54513 4.16601 12.87891h11.03516c.56821-8.33378 4.16602-12.87891 4.16602-12.87891s-3.7876-6.81906-9.6836-9.4707zm-83.21875 5.4043c-.17377-.0102-.3409-.007-.5.0117-1.06072.12434-1.76336.90789-1.67969 2.58203.1338 2.67855-1.20507 4.41992-1.20507 4.41992l4.6875 1.60742s.4015-2.27787 2.14257-3.61719c1.74108-1.33923.40265-3.61522-1.74023-4.55273-.60267-.26362-1.18375-.42045-1.70508-.45117zm166.4375 0c-.52133.0307-1.1024.18755-1.70508.45117-2.14287.93751-3.48131 3.2135-1.74023 4.55273 1.74108 1.33932 2.14258 3.61719 2.14258 3.61719l4.6875-1.60742s-1.33888-1.74137-1.20508-4.41992c.0837-1.67414-.61896-2.45769-1.67969-2.58203-.1591-.0186-.32622-.022-.5-.0117zm-177.32226 26.5664c-2.39675 2.88443-5.28185 4.80943-8.57227 6.56446l-.66797 4.82031 5.26758-1.07227c2.1877-4.01782 5.98242-7.5 5.98242-7.5zm188.20703 0-2.00977 2.8125s3.79667 3.48218 5.98438 7.5l5.26562 1.07227-.66797-4.82031c-3.29042-1.75503-6.17551-3.68003-8.57226-6.56446zm-96.96875 24.0918s.37895 6.4403.56836 9.66016h4.59375c.18943-3.21986.56836-9.66016.56836-9.66016z" transform="scale(.26458)"/>
    <path style="font-variation-settings:normal;vector-effect:none;fill:#ececec;fill-opacity:1;stroke:#000;stroke-width:.264583;stroke-linecap:butt;stroke-linejoin:miter;stroke-miterlimit:4;stroke-dasharray:none;stroke-dashoffset:0;stroke-opacity:1;stop-color:#000" d="M157.35423 146.93824c-.43953.64855-2.70349 4.12164-9.42073.17241-6.71746-3.94935-11.07855-8.23069-16.99188-11.03702-5.91334-2.80633-10.62397-1.60362-12.72871-.60136 0 0 2.50565-1.60364 5.11152-3.70839 2.60588-2.10475 4.84295-4.12609 4.84295-4.12609l13.46502 3.4245c1.35847.79835 2.38386 2.29465 5.14493 4.72734 2.76108 2.43268 4.05916 3.15712 5.61266 3.60814l7.31009 3.04614z"/>
    <path style="color:#000;font-style:normal;font-variant:normal;font-weight:400;font-stretch:normal;font-size:medium;line-height:normal;font-family:sans-serif;font-variant-ligatures:normal;font-variant-position:normal;font-variant-caps:normal;font-variant-numeric:normal;font-variant-alternates:normal;font-variant-east-asian:normal;font-feature-settings:normal;font-variation-settings:normal;text-indent:0;text-align:start;text-decoration:none;text-decoration-line:none;text-decoration-style:solid;text-decoration-color:#000;letter-spacing:normal;word-spacing:normal;text-transform:none;writing-mode:lr-tb;direction:ltr;text-orientation:mixed;dominant-baseline:auto;baseline-shift:baseline;text-anchor:start;white-space:normal;shape-padding:0;shape-margin:0;inline-size:0;clip-rule:nonzero;display:inline;overflow:visible;visibility:visible;isolation:auto;mix-blend-mode:normal;color-interpolation:sRGB;color-interpolation-filters:linearRGB;solid-color:#000;solid-opacity:1;vector-effect:none;fill:#d3b568;fill-opacity:1;fill-rule:nonzero;stroke:#000;stroke-width:.264583;stroke-linecap:butt;stroke-linejoin:miter;stroke-miterlimit:4;stroke-dasharray:none;stroke-dashoffset:0;stroke-opacity:1;color-rendering:auto;image-rendering:auto;shape-rendering:auto;text-rendering:auto;enable-background:accumulate;stop-color:#000" d="M120.8526 141.88873c-1.23902 1.11799-3.63043 1.8831-6.08512 1.13209-2.32238-.71052-3.47539-1.27065-5.23006-1.55211-1.75466-.28146-3.61096-.30048-5.63404.47985-2.00416.77303-2.96367 1.67303-3.24414 2.72923-.28048 1.05621-.10047 2.08241.76048 2.87958.86095.79717 2.50661.647 3.43624.20232 1.29233-.61817 2.33182-.19888 2.46757.9068-.50801 0-.92823-.11747-1.49152.18744-.56328.30491-.90794.52549-1.8163.62276-.92559.0991-2.13261-.062-3.18516-1.03661-1.052559-.97459-1.500244-2.55624-1.139343-3.9153.360903-1.35906 1.613643-2.53226 3.776673-3.36657 2.14411-.82701 4.18756-1.02141 6.04616-.72327 1.8586.29813 3.23112.97317 5.53402 1.67773 2.24647.6873 3.97433.23243 5.12295-.66344 1.14862-.89587 1.49952-2.04212 1.87865-3.48504.44809 1.44522.0419 2.80656-1.19706 3.92454zm33.1914 22.01499c.63146-1.39981 1.69233-2.65462 3.81255-3.39982 2.12023-.7452 2.439-.91263 3.0606-1.43818-2.05874-.80988-2.71994-2.18903-2.80217-3.52867-.0822-1.33964.34342-2.524 1.24353-3.32026.90011-.79626 2.30262-.82014 3.30139-.19922.99878.62092 1.70087 1.67987 1.73309 3.16221.0322 1.48234-.44136 2.62556-1.19073 3.41982 1.82149-.11082 3.39195-.96615 4.26758-3.387.87562-2.42086.63049-6.39892-2.15067-9.12583-2.78117-2.72692-6.91574-3.16881-6.91574-3.16881l.0273-.79491s4.56581.0741 7.50586 3.24553c2.94005 3.17145 3.32766 7.2171 2.27929 10.11552-1.04836 2.89842-3.5647 4.2494-6.06445 3.87918-1.00634.65601-2.05434 1.17377-4.02344 1.88672-1.96909.71295-3.18466 2.06586-3.65033 3.20508-.46568 1.13922-.66705 2.09081-.66705 2.09081s-.39811-1.24235.23335-2.64217zm5.87729-11.05773c-.65517.57308-1.05047 1.39058-.81484 2.8505.23563 1.45992 1.25558 2.50985 2.9962 2.83867 1.04969-.59334 1.45511-1.94856 1.41778-3.11703-.0373-1.16848-.61005-2.16084-1.27849-2.57638-.66845-.41554-1.66549-.56884-2.32065.004zm-18.13042 8.91963c1.84262-.27987 2.64022-1.45336 2.51819-2.78253-.12203-1.32917-1.06873-2.4555-2.37238-2.73895-1.30365-.28345-2.47478.11631-4.16154.31703-1.68676.20071-3.92243.21802-6.39314-.65168l.41401-.80011c2.3351.82197 4.14842.75728 5.78515.5625 1.63674-.19478 3.0616-.55368 4.67383-.20313 1.61223.35055 2.79773 1.68016 2.94531 3.48633.14759 1.80617-1.18817 3.39819-3.38661 3.69398-2.19844.29578-4.63074-.90829-5.35446-2.14361-.72372-1.23532-.21943-1.96369.20782-2.40703-.0596.71204-.0413 1.51299.84623 2.335.88752.82201 2.43497 1.61207 4.27759 1.3322z"/>
    <path style="font-variation-settings:normal;vector-effect:none;fill:none;fill-opacity:1;stroke:#000;stroke-width:.264583;stroke-linecap:butt;stroke-linejoin:miter;stroke-miterlimit:4;stroke-dasharray:none;stroke-dashoffset:0;stroke-opacity:1;stop-color:#000" d="M163.20226 158.5996c-.44704.0376-.74461.0316-1.09961-.0644m.0488.82808s-.7169-.0985-1.23432-.29756"/>
    <path style="font-variation-settings:normal;vector-effect:none;fill:#ececec;fill-opacity:1;stroke:#000;stroke-width:.264583;stroke-linecap:butt;stroke-linejoin:miter;stroke-miterlimit:4;stroke-dasharray:none;stroke-dashoffset:0;stroke-opacity:1;stop-color:#000" d="M36.26209 146.93824c.439534.64855 2.70349 4.12164 9.420734.17241 6.717458-3.94935 11.078542-8.23069 16.991879-11.03702 5.913339-2.80633 10.623965-1.60362 12.728712-.60136 0 0-2.505651-1.60364-5.111529-3.70839s-4.842946-4.12609-4.842946-4.12609l-13.465017 3.4245c-1.358472.79835-2.383861 2.29465-5.144938 4.72734-2.761077 2.43268-4.059156 3.15712-5.61266 3.60814l-7.310087 3.04614z"/>
    <path style="color:#000;font-style:normal;font-variant:normal;font-weight:400;font-stretch:normal;font-size:medium;line-height:normal;font-family:sans-serif;font-variant-ligatures:normal;font-variant-position:normal;font-variant-caps:normal;font-variant-numeric:normal;font-variant-alternates:normal;font-variant-east-asian:normal;font-feature-settings:normal;font-variation-settings:normal;text-indent:0;text-align:start;text-decoration:none;text-decoration-line:none;text-decoration-style:solid;text-decoration-color:#000;letter-spacing:normal;word-spacing:normal;text-transform:none;writing-mode:lr-tb;direction:ltr;text-orientation:mixed;dominant-baseline:auto;baseline-shift:baseline;text-anchor:start;white-space:normal;shape-padding:0;shape-margin:0;inline-size:0;clip-rule:nonzero;display:inline;overflow:visible;visibility:visible;isolation:auto;mix-blend-mode:normal;color-interpolation:sRGB;color-interpolation-filters:linearRGB;solid-color:#000;solid-opacity:1;vector-effect:none;fill:#d3b568;fill-opacity:1;fill-rule:nonzero;stroke:#000;stroke-width:.264583;stroke-linecap:butt;stroke-linejoin:miter;stroke-miterlimit:4;stroke-dasharray:none;stroke-dashoffset:0;stroke-opacity:1;color-rendering:auto;image-rendering:auto;shape-rendering:auto;text-rendering:auto;enable-background:accumulate;stop-color:#000" d="M72.763723 141.88873c1.239013 1.11799 3.630428 1.8831 6.085115 1.13209 2.322379-.71052 3.475391-1.27065 5.230059-1.55211 1.754667-.28146 3.610965-.30048 5.634045.47985 2.00416.77303 2.963663 1.67303 3.244141 2.72923.280477 1.05621.100463 2.08241-.760486 2.87958-.860948.79717-2.506612.647-3.436237.20232-1.292326-.61817-2.331821-.19888-2.467572.9068.508017 0 .928234-.11747 1.491517.18744s.907944.52549 1.816303.62276c.925592.0991 2.13261-.062 3.185165-1.03661 1.052556-.97459 1.500241-2.55624 1.13934-3.9153-.360901-1.35906-1.613647-2.53226-3.776675-3.36657-2.144107-.82701-4.187556-1.02141-6.046156-.72327-1.858599.29813-3.231125.97317-5.534026 1.67773-2.246465.6873-3.974324.23243-5.122944-.66344-1.14862-.89587-1.499526-2.04212-1.878649-3.48504-.448097 1.44522-.04195 2.80656 1.19706 3.92454zm-33.191406 22.01499c-.631461-1.39981-1.692328-2.65462-3.812551-3.39982-2.120223-.7452-2.438993-.91263-3.060599-1.43818 2.05874-.80988 2.719943-2.18903 2.802169-3.52867.08223-1.33964-.343412-2.524-1.243524-3.32026-.900112-.79626-2.302623-.82014-3.301397-.19922-.998774.62092-1.700864 1.67987-1.73309 3.16221-.03223 1.48234.441368 2.62556 1.190737 3.41982-1.821489-.11082-3.39195-.96615-4.267578-3.387-.875628-2.42086-.630492-6.39892 2.15067-9.12583 2.781163-2.72692 6.915737-3.16881 6.915737-3.16881l-.02734-.79491s-4.56581.0741-7.505859 3.24553c-2.940049 3.17145-3.32766 7.2171-2.279297 10.11552 1.048363 2.89842 3.564707 4.2494 6.064453 3.87918 1.006338.65601 2.054345 1.17377 4.023437 1.88672 1.969092.71295 3.18466 2.06586 3.650339 3.20508.465679 1.13922.667044 2.09081.667044 2.09081s.398113-1.24235-.233347-2.64217zm-5.877283-11.05773c.655166.57308 1.050464 1.39058.814835 2.8505-.23563 1.45992-1.255577 2.50985-2.996197 2.83867-1.04969-.59334-1.455112-1.94856-1.41778-3.11703.03733-1.16848.610043-2.16084 1.278491-2.57638s1.665485-.56884 2.320651.004zm18.130418 8.91963c-1.842621-.27987-2.640225-1.45336-2.518195-2.78253.12203-1.32917 1.068728-2.4555 2.372379-2.73895 1.303651-.28345 2.474786.11631 4.161544.31703 1.686757.20071 3.922434.21802 6.393143-.65168l-.414011-.80011c-2.335105.82197-4.14842.75728-5.785156.5625-1.636736-.19478-3.061597-.55368-4.673828-.20313-1.612231.35055-2.797726 1.68016-2.945312 3.48633s1.188174 3.39819 3.386615 3.69398c2.198442.29578 4.630736-.90829 5.354456-2.14361.72372-1.23532.219431-1.96369-.207817-2.40703.05955.71204.04129 1.51299-.846229 2.335-.887518.82201-2.434968 1.61207-4.277589 1.3322z"/>
    <path style="font-variation-settings:normal;vector-effect:none;fill:#3973c6;fill-opacity:1;stroke:#000;stroke-width:.264583;stroke-linecap:butt;stroke-linejoin:miter;stroke-miterlimit:4;stroke-dasharray:none;stroke-dashoffset:0;stroke-opacity:1;stop-color:#000" d="m40.797805 137.93769-7.937499-1.98438s-2.153488.4772-2.55134 2.4096c-.363021 1.76323-.07087 2.4096 1.063058 3.68527 1.133929 1.27567 4.890067 4.89006 4.890067 4.89006-.505851-1.34894-.595541-3.99452 2.126116-5.45703 2.724657-1.46413 6.165735.21261 6.165735.21261-.706385-1.00946-2.837317-2.83856-3.756137-3.75613z"/>
    <path style="font-variation-settings:normal;vector-effect:none;fill:none;fill-opacity:1;stroke:#000;stroke-width:.264583;stroke-linecap:butt;stroke-linejoin:miter;stroke-miterlimit:4;stroke-dasharray:none;stroke-dashoffset:0;stroke-opacity:1;stop-color:#000" d="M30.414063 158.5996c.447039.0376.74461.0316 1.099608-.0644m-.04882.82808s.716895-.0985 1.234319-.29756"/>
    <path style="font-variation-settings:normal;vector-effect:none;fill:#d3b568;fill-opacity:1;stroke:#000;stroke-width:.264583;stroke-linecap:butt;stroke-linejoin:miter;stroke-miterlimit:4;stroke-dasharray:none;stroke-dashoffset:0;stroke-opacity:1;stop-color:#000" d="M95.39849 178.97036c-.250565-.85192.300679-1.65373-.601356-1.80407-.902038-.15034-.952148 1.05237-.952148 1.05237s-.601353-.35079-.701583-1.05237l-.90203.0501s.80181-1.5535-.35079-2.60588c0 0-.60136.30069-1.70385.90205l-.15034-1.30294-1.05237-.10023s1.00226-.90203.85192-1.60361c-.15034-.70159-1.40316-.30068-1.40316-.30068s-.10023-1.65373.8018-2.45554c.90204-.80181 2.45554-.70158 2.3052-1.80407-.15033-1.10249-1.80407-1.00226-2.45553.35079-.65147 1.35305-1.9043 2.15486-1.9043 2.15486s-.25057-1.40316-1.05237-1.1526c-.80181.25057-1.60362.95215-1.60362.95215s-.30068-.65147.15034-1.40317c0 0-1.25283-.25056-3.20724-.4009 0 0 .70159-1.60362 1.55351-2.05463l-.85192-.80181s1.45327-.45102 1.65373-.95215c.20045-.50113-.95215-.85192-.95215-.85192l1.00226-.80181-.25057-.85192s.65147-.55125 1.60362-.20045c.95215.35079 2.10475.10022 2.10475.10022s.0501-.95215-1.05237-1.20271c-1.10249-.25057-1.25283-.60136-1.25283-.60136s1.60362-.15034 2.35531-.70158c.7517-.55124 7.166166.50113 7.166166.50113s-.244088 2.3052 2.261564 2.3052 2.261564-2.3052 2.261564-2.3052 6.414473-1.05237 7.166163-.50113c.7517.55124 2.35531.70158 2.35531.70158s-.15034.35079-1.25282.60136c-1.10249.25056-1.05238 1.20271-1.05238 1.20271s1.1526.25057 2.10475-.10022c.95215-.3508 1.60362.20045 1.60362.20045l-.25057.85192 1.00226.80181s-1.1526.35079-.95214.85192c.20045.50113 1.65373.95215 1.65373.95215l-.85192.80181c.85192.45101 1.5535 2.05463 1.5535 2.05463-1.95441.15034-3.20724.4009-3.20724.4009.45102.7517.15034 1.40317.15034 1.40317s-.8018-.70158-1.60361-.95215c-.80181-.25056-1.05238 1.1526-1.05238 1.1526s-1.25282-.80181-1.90429-2.15486-2.3052-1.45328-2.45554-.35079c-.15034 1.10249 1.40316 1.00226 2.3052 1.80407.90203.80181.80181 2.45554.80181 2.45554s-1.25283-.40091-1.40317.30068c-.15034.70158.85192 1.60361.85192 1.60361l-1.05237.10023-.15034 1.30294c-1.10249-.60136-1.70384-.90205-1.70384-.90205-1.1526 1.05238-.35079 2.60588-.35079 2.60588l-.90204-.0501c-.10022.70158-.70158 1.05237-.70158 1.05237s-.05011-1.20271-.952148-1.05237c-.902035.15034-.350791.95215-.601356 1.80407-.250566.85192-1.409643 1.40316-1.409643 1.40316s-1.159077-.55124-1.409643-1.40316zM133.1401 153.18666s.0354-.85044-.31892-1.24023c-.35435-.38979-1.02762.21261-1.02762.21261s-.24805-.31892-.31892-.74414c-.0709-.42522-.7087-.53153-.7087-.53153s.46066-.42522.92131-.92132c.46066-.49609-.0576-.86664-.42522-.74413-.36758.1225-.67327.46065-.67327.46065s-.24805-.35435-.85045-.17717c0 0 .35436-.81502-.35435-1.2048-.70871-.38979-.81501-.81501-.81501-.81501l2.53407-2.24866c.49511.4059 1.40984 1.08617 1.7536.15797 0 0 .85044.88588 1.70089.38979 0 0 .32128-.92131-.67327-1.38197 0 0 .24805-.46066 0-.88588 0 0 .35435-.14175.77958-.81502 0 0 .35435-.0709.63783-.28348 0 0 .24805.21261.56697.31892 0 0-.0354.49609.31891.74414 0 0 .14174-.88588.63784-1.3111 0 0 .46066.17717.63783.6024 0 0 1.02762-.46066 2.12612-.17718 0 0 .0354.49609-.10631.81501l.56697.10631s.46066.74414.31891 1.52371c0 0-1.13393-.14174-1.59458-.0354 0 0-.10631.5315.63783.67324.74414.14174 1.77177-.14174 1.77177-.14174s.1063.31891 0 .7087l.81501-.0354.0354.67327.63783.24804-.21261.56697s.99219.88588 1.70089 1.3111l-.38978.49607s.99219.74414 1.66546 1.24023c0 0-1.63002.17718-2.23242.0354 0 0-.0354.567-.17718.85048 0 0-.88588-.38979-1.13393-.63783 0 0-.21261.56696-.10631 1.06306 0 0-.46065-.10631-.67327-.31892l-.46065.63783s-.85045-.77957-1.0985-1.16936c0 0-.31891.31891-.31891.85045-.59254-.33494-.77959-.74415-1.34654-.81502 0 0-.28349-.35435-.21262-1.13392.0709-.77958-.63783-1.13393-1.13392-.77958-.4961.35435.0709 1.70089.88588 2.01981 0 0 .0354.74414 0 1.09849l-.74414-.0354.0709.7087s-1.0985-.0709-1.8072 1.16935c0 0-.77958-1.20481-1.8072-1.09851zM60.476163 153.18666s-.0354-.85044.31892-1.24023c.35435-.38979 1.02762.21261 1.02762.21261s.24805-.31892.31892-.74414c.0709-.42522.7087-.53153.7087-.53153s-.46066-.42522-.92132-.92132c-.46065-.49609.0576-.86664.42523-.74413.36758.1225.67327.46065.67327.46065s.24804-.35435.85044-.17717c0 0-.35435-.81502.35436-1.2048.7087-.38979.81501-.81501.81501-.81501l-2.53408-2.24866c-.4951.4059-1.40983 1.08617-1.75359.15797 0 0-.85045.88588-1.70089.38979 0 0-.32128-.92131.67327-1.38197 0 0-.24805-.46066 0-.88588 0 0-.35435-.14175-.77958-.81502 0 0-.35435-.0709-.63783-.28348 0 0-.24805.21261-.56697.31892 0 0 .0354.49609-.31891.74414 0 0-.14175-.88588-.63784-1.3111 0 0-.46066.17717-.63783.6024 0 0-1.02763-.46066-2.12612-.17718 0 0-.0354.49609.10631.81501l-.56697.10631s-.46066.74414-.31892 1.52371c0 0 1.13393-.14174 1.59459-.0354 0 0 .10631.5315-.63783.67324-.74414.14174-1.77177-.14174-1.77177-.14174s-.1063.31891 0 .7087l-.81501-.0354-.0354.67327-.63783.24804.21261.56697s-.99219.88588-1.7009 1.3111l.38979.49607s-.99219.74414-1.66546 1.24023c0 0 1.63002.17718 2.23242.0354 0 0 .0354.567.17718.85048 0 0 .88588-.38979 1.13393-.63783 0 0 .21261.56696.1063 1.06306 0 0 .46066-.10631.67327-.31892l.46066.63783s.85045-.77957 1.09849-1.16936c0 0 .31892.31891.31892.85045.59254-.33494.77959-.74415 1.34654-.81502 0 0 .28348-.35435.21261-1.13392-.0709-.77958.63784-1.13393 1.13393-.77958.4961.35435-.0709 1.70089-.88588 2.01981 0 0-.0354.74414 0 1.09849l.74414-.0354-.0709.7087s1.09849-.0709 1.8072 1.16935c0 0 .77958-1.20481 1.8072-1.09851zM123.35783 152.46057s.75169 2.3553.45101 4.00903c0 0-.55517-.37724-1.61823-.37724-1.06305 0-1.55915-1.0985-1.55915-1.0985l-5.95313 2.65765c.6024.24804 1.87807-.0709 1.66545.67327-.21261.74414-1.55915.6024-2.01981 1.41741-.46065.81501-.21261 1.9135-.21261 1.9135.56697-.67327 1.78323-.46759 1.38198.60241-.42523 1.13393-.28348 1.77176-.28348 1.77176.46065-.0709 1.02762.1063 1.02762.1063-.38979 1.48828-.14174 2.48047-.14174 2.48047.63783-.56696 2.05524-1.84263 2.05524-1.84263.21261.35435.67327.85044.67327.85044.53153-.7087 1.16937-1.41741 1.16937-1.41741.31891.53153.95675.95675.95675.95675 1.16936-.7087.49609-1.70089.46066-2.97656-.0354-1.27567 1.27871-1.83405 1.77176-.88588s-.56696 1.34654-.42522 2.87026c.14174 1.52372 1.09849 2.05524 1.09849 2.05524.14174-.46066.67327-.74414.67327-.74414.35435 1.0985 1.02762 2.4096 1.02762 2.4096.28349-.38979.57379-.96577.57379-.96577.55124.60135 1.40316 1.40316 1.40316 1.40316.40162-.82651.12778-1.1576.40091-1.70384 1.19321.84976.63723 1.22565 2.20497 2.20497l.25056-.7517c.35079.50114 1.05238.90204 1.05238.90204l-.0501-1.35305c1.61063.64104 2.63399 1.54721 4.29301 2.02122-.99135-1.63639-1.47056-2.74257-2.15486-3.75848l1.65373.00001c-.51764-.42522-.55019-.73499-.95215-1.10249l.65147-.50113c-.83047-.51106-.78502-.93773-1.64157-1.56818 0 0 .63931-.23588 1.59146-.18578l-1.1526-1.10248.70158-.3508s-.85192-.85192-1.85418-1.1526l.7517-.4009s-.95215-.90203-1.85419-1.20271c-.90203-.30068-2.60587 0-2.60587 0s-.3508-1.00226.60135-1.25283c.95215-.25056 1.70385 1.05238 3.50792.65147l-.90204-.90203.95215-.55125-.70158-.50113 1.50339-1.35305s-1.55351-.30066-2.75622-.25056l.45102-.80181s-.95215 0-1.55351.10022l.20046-.70158s-1.75396-.25057-3.20724-.10023c0 0-.67652-1.12754-.87698-1.97946z"/>
    <path style="color:#000;font-style:normal;font-variant:normal;font-weight:400;font-stretch:normal;font-size:medium;line-height:normal;font-family:sans-serif;font-variant-ligatures:normal;font-variant-position:normal;font-variant-caps:normal;font-variant-numeric:normal;font-variant-alternates:normal;font-variant-east-asian:normal;font-feature-settings:normal;font-variation-settings:normal;text-indent:0;text-align:start;text-decoration:none;text-decoration-line:none;text-decoration-style:solid;text-decoration-color:#000;letter-spacing:normal;word-spacing:normal;text-transform:none;writing-mode:lr-tb;direction:ltr;text-orientation:mixed;dominant-baseline:auto;baseline-shift:baseline;text-anchor:start;white-space:normal;shape-padding:0;shape-margin:0;inline-size:0;clip-rule:nonzero;display:inline;overflow:visible;visibility:visible;opacity:1;isolation:auto;mix-blend-mode:normal;color-interpolation:sRGB;color-interpolation-filters:linearRGB;solid-color:#000;solid-opacity:1;vector-effect:none;fill:#000;fill-opacity:1;fill-rule:nonzero;stroke:none;stroke-width:3.77953;stroke-linecap:butt;stroke-linejoin:miter;stroke-miterlimit:4;stroke-dasharray:none;stroke-dashoffset:0;stroke-opacity:1;color-rendering:auto;image-rendering:auto;shape-rendering:auto;text-rendering:auto;enable-background:accumulate;stop-color:#000;stop-opacity:1" d="M337.26367 604.00391c1.63921 3.2467 4.07244 5.67597 6.57031 7.76367-4.41738-.0478-8.29868-.71698-11.875-3.4043 3.24582 3.34338 8.44727 4.45537 12.35938 4.1211 4.61212 3.53809 9.23859 5.5782 10.87695 6.26757-6.53738.7723-12.46531 2.16582-17.58789 3.72852-4.805-1.35392-8.52469-3.51823-12.8418-5.9707 3.51013 2.66325 7.18876 5.103 11.44727 6.40039-2.15376.68931-4.13072 1.39653-6.06641 2.11328-4.53075.56634-10.30468-.9375-10.30468-.9375s4.39413 1.65868 8.63086 1.63281c-6.23777 2.54978-9.72266 5.08203-9.72266 5.08203s3.87657-1.89511 10.12695-4.43945c-1.01978 1.16197-3.03175 3.70432-3.54297 7.0039 1.38601-3.65689 4.42466-7.05746 4.84961-7.52148 2.21381-.86615 4.71441-1.74727 7.63086-2.64258 4.81884-1.46153 10.11785-2.72836 15.93946-3.51172-2.68264.83295-7.16529 2.55321-11.41211 5.80078-6.46943 4.94722-8.67774 8.63086-8.67774 8.63086s2.71889-3.13142 9.12891-8.0332c6.35451-4.85934 14.82226-6.72656 14.82226-6.72656 2.87712-.35464 5.31223-.47907 7.77344-.49414v2.92969c-5.55814 2.37724-10.47597 7.37022-14.04687 11.80468-3.64221 4.52304-5.55274 8.66602-5.55274 8.66602s2.53229-3.71969 6.13477-8.19336c3.46555-4.3036 8.22939-9.10537 13.46484-11.44922v11.85938c-5.34865 1.48825-10.34728 6.5074-14.09179 11.21679-3.8808 4.88073-6.08008 9.63672-6.08008 9.63672s2.82666-4.33791 6.66406-9.16406c3.65459-4.59627 8.5357-9.4332 13.50781-10.91406v9.48828c-9.71363 5.18126-10.86448 15.81343-10.50781 15.89257 0 0 2.46004-10.74026 10.50781-14.65234v12.85742c-3.32284 1.31248-5.428 4.21846-6.15625 7.66797 1.46481-3.18872 3.53968-5.81336 6.15625-6.65039v2.00195c0 10.75174.50196 16.1836.50195 16.1836 0 0 .50196-5.43186.50196-16.1836v-2c2.61537.83793 4.68801 3.46074 6.15234 6.64844-.728-3.44837-2.83145-6.35486-6.15234-7.66797v-12.85547c8.04592 3.91302 10.5039 14.6504 10.5039 14.65039.35664-.0791-.79274-10.70886-10.5039-15.89062v-9.48828c4.97116 1.48183 9.84999 6.31668 13.5039 10.91211 3.8374 4.82615 6.66407 9.16406 6.66407 9.16406s-2.19926-4.75599-6.08008-9.63672c-3.7438-4.70848-8.74041-9.7255-14.08789-11.21484v-11.85938c5.23388 2.34451 9.99628 7.14476 13.46094 11.44727 3.60249 4.47367 6.13476 8.19336 6.13476 8.19336s-1.91052-4.14298-5.55273-8.66602c-3.57006-4.4334-8.48647-9.4248-14.04297-11.80273v-2.93164c2.45989.0152 4.89393.13967 7.76953.49414 0 0 8.46775 1.86722 14.82227 6.72656 6.40999 4.90178 9.1289 8.0332 9.1289 8.0332s-2.20832-3.68364-8.67773-8.63086c-4.24683-3.24755-8.72948-4.96784-11.41211-5.80078 5.8216.78335 11.12063 2.05018 15.93945 3.51172 2.91647.8953 5.41704 1.77643 7.63086 2.64258.42493.46405 3.46358 3.8646 4.84961 7.52148-.51122-3.29956-2.52318-5.84196-3.54297-7.0039 6.25039 2.54434 10.12695 4.43945 10.12695 4.43945s-3.48488-2.53225-9.72265-5.08203c4.23673.0259 8.63086-1.63281 8.63086-1.63281s-5.77394 1.50386-10.30469.9375c-1.93569-.71675-3.91264-1.42397-6.06641-2.11328 4.25851-1.29736 7.93715-3.73715 11.44727-6.40039-4.31709 2.45246-8.03681 4.61676-12.8418 5.9707-5.12258-1.56272-11.0505-2.95621-17.58789-3.72852 1.63837-.68934 6.26679-2.72949 10.87891-6.26757 3.91211.33428 9.1116-.77773 12.35742-4.1211-3.5763 2.68732-7.4576 3.35668-11.875 3.4043 2.49789-2.0877 4.93109-4.51698 6.57031-7.76367-6.23089 8.99561-16.79783 13.61091-19.27539 14.5957-2.8508-.29543-5.8064-.46648-8.8457-.48438v-4.57617h-1.00391v4.57617c-3.04068.0178-5.99758.18884-8.84961.48438-2.47756-.9848-13.04451-5.60006-19.27539-14.5957zM462.37891 593.70508c-2.94429-.9603-5.91348-.78342-8.66993-.91797-2.7942-.13652-5.3422-.57154-7.80664-2.48047 2.1125 2.6115 4.91731 3.09491 7.76954 3.23438 2.6133.12763 5.29111-.001 7.88281.70312-1.37318.91718-2.88626 2.07315-4.46289 3.50586 0 0-8.84516 4.85555-17.625 4.29883 6.97239 1.11904 13.38317-1.48625 16.01172-2.73633-.63198.6429-1.26697 1.31433-1.90235 2.05273-7.06057 8.20555-10.13476 17.66797-10.13476 17.66797s3.74785-9.09648 10.70312-17.17968c.67261-.78169 1.34086-1.49144 2.00391-2.16211-2.22221 4.92997-2.22699 10.82728-1.34375 16.18359-.38963-6.18089-.0881-11.88488 2.74804-17.54102 5.43916-4.99619 10.03937-6.34515 10.29297-6.42187.0512.0477.99249.86341 2.25391 2.0918-.37693 1.13306-4.11977 12.96352.42969 24.33593-3.6587-11.11105-.28042-22.23669.20117-23.71679 1.63453 1.60554 3.69441 3.66648 6.23633 6.38086-1.05332 2.15433-5.15805 11.92334.75586 23.58398-5.10327-11.70894-1.19768-20.91372-.1836-22.96094 2.00561 2.16008 4.50935 4.94415 6.70117 7.69141-.5687 4.68053-.14629 11.14007 2.38868 16.5957-1.67868-4.4101-2.48971-10.65683-1.75391-15.95312 2.73233 3.21244 5.72825 6.78501 8.84375 10.53906-.34447.98392-1.33091 4.63531 1.99609 8.44727-2.2436-3.6155-1.76971-6.54994-1.41406-7.74805 5.61649 6.77333 10.88672 12.60937 10.88672 12.60937s-4.75145-6.38734-10.41602-13.21679c4.06201-.67363 7.57422 2.48242 7.57422 2.48242s-3.41777-4.36493-8.18164-3.21289c-3.01508-3.6319-5.89081-7.05896-8.55468-10.19336 7.2648.0615 13.51757 5.64258 13.51757 5.64258s-6.21372-6.77678-14.19922-6.44532c-2.26673-2.66018-4.26318-5.00111-6.80468-7.70703 6.96022.0724 13.17047 3.57091 19.48633 5.625-6.58387-3.46737-12.64723-5.92906-20.15821-6.42773-2.34519-2.42956-4.22718-4.32624-5.81836-5.90235 1.621.19945 5.83927.90082 12.00977 3.39844 7.96781 3.22507 12.64258 4.20117 12.64258 4.20117s-4.41922-1.67989-12.36133-4.89453c-7.6543-3.09823-12.76497-3.56767-13.20313-3.60547-1.118-1.09372-1.93661-1.81359-2.33789-2.16211 1.28649-1.11721 2.99383-1.79988 4.52818-2.2433 2.30003-.60416 4.11678-.92479 6.28823-1.27818 7.16549.13406 13.56055 2.57422 13.56055 2.57422s-4.81052-2.4145-10.86329-3.0332c8.22142-1.13182 13.25196-.76368 13.25196-.76368-4.94737-.8914-9.52003-.48616-14.49219.19922 1.07497-.91434 3.18914-3.00081 4.4707-7.11328-2.29534 4.60638-5.34678 6.98671-5.80078 7.32422-1.94273.3316-4.04434.7774-6.25781 1.33789 1.91832-3.81636 2.29797-9.86424 1.16992-14.28711.50857 4.98883-.45966 11.42767-1.85351 14.45117-1.85776.5536-3.15108 1.0811-4.48536 2.49414-.27256.11888-2.51195.76277-5.5205 2.65235zM201.15039 560.90234c-5.91859 2.72121-11.50684 5.57324-11.50684 5.57324s5.95126-2.18872 11.917-4.93261c-1.52077 2.79796-4.53383 5.32683-6.74122 6.98437 3.48901-1.64334 6.23938-4.03082 7.8545-7.49414 2.37582-1.10068 4.66075-2.18369 6.64062-3.17382-2.06342 4.91865-5.21984 8.27379-8.86621 12.14062 3.70515-3.47433 8.78035-7.4386 9.87207-12.63867 2.56672-1.3046 4.34567-2.142 5.78711-2.78516-2.32064 4.26661-4.80305 9.30203-8.56543 12.61133 4.5695-3.54883 7.2006-7.92051 9.64356-13.07617.78845-.33986 1.61186-.6978 2.32226-1.00195.84807 1.59929 2.00262 2.83956 2.56641 4.84179-.5099 5.81323-4.34863 12.84961-4.34863 12.84961s3.73576-5.6018 4.73339-11.27148c1.67131 7.93175.53321 17.52343.53321 17.52343s1.84629-9.09526.30469-17.11914c1.11527 1.68506 3.40126 4.39329 7.28417 4.97657-5.05617-1.65149-7.78808-7.17188-7.78808-7.17188-.57411-2.02515-1.76231-3.29805-2.5957-4.93164 2.88127 2.93643 7.13054 4.29121 10.53125 4.89453.66147 1.69472 1.60809 2.91169 3.06347 3.99414-.77637-1.34622-1.5393-2.59018-2.20019-3.94922 2.49562.37614 5.33466.62712 8.89941.0664-3.50011-.19841-6.22947-.44125-8.64746-.79688 1.01238-1.07975 2.94888-1.87668 4.09668-2.55078-2.05627.18489-3.79413.93427-5.04199 2.49805-3.6808-.67045-7.56614-1.99477-9.98242-4.50391.98792-.45314 2.4375-1.12695 2.4375-1.12695l-.2793-.69531s-2.59706 1.2227-3.26367 1.50586c-.35441-.61917-.72711-1.21959-1.11524-1.80664.2855-.46151 2.86503-4.78097 1.8418-9.93359.18682 4.52776-1.73719 8.24125-2.32031 9.25585-.9961-1.42141-2.09542-2.76009-3.3545-4.0371 0 0 .70897-2.66286-.48828-5.35157.33543 2.42015-.12064 4.35344-.21582 4.74414-1.76749-1.6213-3.80849-3.10395-6.43554-4.12402 1.83744 1.44306 3.57371 2.63321 5.09765 3.91308-3.20506-.52264-6.39993-.27431-9.16114.82227 3.2089-.98381 7.3684-.57203 10.17872.0898 2.16568 2.00945 3.879 4.23116 5.31641 6.73828-.67719.29017-1.45963.62913-2.19336.94336-5.01808-2.24697-9.92867-2.29546-15.17383-1.20898 4.67985-.12719 9.88778-.3261 14.14062 1.6543-1.46931.64927-3.26099 1.48261-5.93945 2.84375-.46516-.22532-4.40182-2.03391-10.74805-1.1504 5.55373-.0687 8.83123 1.16211 9.83399 1.60352-2.02764 1.01595-4.39907 2.13739-6.85742 3.27539-3.50412-1.46794-6.89664-.94095-10.20704.61329 3.00889-.58375 6.31538-1.22816 9.14063-.12501z" transform="scale(.26458)"/>
    <path style="font-variation-settings:normal;vector-effect:none;fill:#d3b568;fill-opacity:1;stroke:#000;stroke-width:.264583;stroke-linecap:butt;stroke-linejoin:miter;stroke-miterlimit:4;stroke-dasharray:none;stroke-dashoffset:0;stroke-opacity:1;stop-color:#000" d="M70.25849 152.46057s-.75169 2.3553-.45101 4.00903c0 0 .55517-.37724 1.61823-.37724 1.06305 0 1.55915-1.0985 1.55915-1.0985l5.95313 2.65765c-.6024.24804-1.87807-.0709-1.66545.67327.21261.74414 1.55915.6024 2.01981 1.41741.46065.81501.21261 1.9135.21261 1.9135-.56697-.67327-1.78323-.46759-1.38198.60241.42523 1.13393.28348 1.77176.28348 1.77176-.46065-.0709-1.02762.1063-1.02762.1063.38979 1.48828.14174 2.48047.14174 2.48047-.63783-.56696-2.05524-1.84263-2.05524-1.84263-.21261.35435-.67327.85044-.67327.85044-.53153-.7087-1.16937-1.41741-1.16937-1.41741-.31891.53153-.95675.95675-.95675.95675-1.16936-.7087-.49609-1.70089-.46066-2.97656.0354-1.27567-1.27871-1.83405-1.77176-.88588s.56696 1.34654.42522 2.87026c-.14174 1.52372-1.09849 2.05524-1.09849 2.05524-.14174-.46066-.67327-.74414-.67327-.74414-.35435 1.0985-1.02762 2.4096-1.02762 2.4096-.28349-.38979-.57379-.96577-.57379-.96577-.55124.60135-1.40316 1.40316-1.40316 1.40316-.40162-.82651-.12778-1.1576-.40091-1.70384-1.19321.84976-.63723 1.22565-2.20497 2.20497l-.25056-.7517c-.35079.50114-1.05238.90204-1.05238.90204l.0501-1.35305c-1.61063.64104-2.63399 1.54721-4.29301 2.02122.99135-1.63639 1.47056-2.74257 2.15486-3.75848l-1.65373.00001c.51764-.42522.55019-.73499.95215-1.10249l-.65147-.50113c.83047-.51106.78502-.93773 1.64157-1.56818 0 0-.63931-.23588-1.59146-.18578l1.1526-1.10248-.70158-.3508s.85192-.85192 1.85418-1.1526l-.7517-.4009s.95215-.90203 1.85419-1.20271c.90203-.30068 2.60587 0 2.60587 0s.3508-1.00226-.60135-1.25283c-.95215-.25056-1.70385 1.05238-3.50792.65147l.90204-.90203-.95215-.55125.70158-.50113-1.50339-1.35305s1.55351-.30066 2.75622-.25056l-.45102-.80181s.95215 0 1.55351.10022l-.20046-.70158s1.75396-.25057 3.20724-.10023c0 0 .67652-1.12754.87698-1.97946z"/>
    <path style="color:#000;font-style:normal;font-variant:normal;font-weight:400;font-stretch:normal;font-size:medium;line-height:normal;font-family:sans-serif;font-variant-ligatures:normal;font-variant-position:normal;font-variant-caps:normal;font-variant-numeric:normal;font-variant-alternates:normal;font-variant-east-asian:normal;font-feature-settings:normal;font-variation-settings:normal;text-indent:0;text-align:start;text-decoration:none;text-decoration-line:none;text-decoration-style:solid;text-decoration-color:#000;letter-spacing:normal;word-spacing:normal;text-transform:none;writing-mode:lr-tb;direction:ltr;text-orientation:mixed;dominant-baseline:auto;baseline-shift:baseline;text-anchor:start;white-space:normal;shape-padding:0;shape-margin:0;inline-size:0;clip-rule:nonzero;display:inline;overflow:visible;visibility:visible;opacity:1;isolation:auto;mix-blend-mode:normal;color-interpolation:sRGB;color-interpolation-filters:linearRGB;solid-color:#000;solid-opacity:1;vector-effect:none;fill:#000;fill-opacity:1;fill-rule:nonzero;stroke:none;stroke-width:1;stroke-linecap:butt;stroke-linejoin:miter;stroke-miterlimit:4;stroke-dasharray:none;stroke-dashoffset:0;stroke-opacity:1;color-rendering:auto;image-rendering:auto;shape-rendering:auto;text-rendering:auto;enable-background:accumulate;stop-color:#000;stop-opacity:1" d="M71.278568 157.08447c.77901-.25408 1.564609-.20728 2.293919-.24288.739299-.0361 1.413457-.15122 2.065507-.65629-.558932.69096-1.301038.81886-2.055691.85576-.691435.0338-1.399939-.00027-2.08566.18603.363321.24267.763657.54852 1.180807.9276 0 0 2.340281 1.28469 4.663281 1.13739-1.844778.29608-3.540964-.39323-4.236434-.72398.167211.1701.335219.34775.50333.54312 1.868109 2.17105 2.681488 4.67465 2.681488 4.67465s-.991618-2.40678-2.831867-4.54546c-.177961-.20682-.354769-.39461-.530201-.57206.58796 1.30439.589224 2.86472.355534 4.28191.103089-1.63536.02331-3.14454-.727086-4.64106-1.439111-1.32191-2.65625-1.67882-2.723348-1.69912-.01355.0126-.262596.22844-.596347.55345.09973.29979 1.090022 3.42993-.113689 6.43888.968031-2.93979.0742-5.88345-.05323-6.27506-.43247.4248-.977479.97009-1.650029 1.68827.278691.57 1.364734 3.15471-.199988 6.23992 1.35024-3.09799.316886-5.53342.04858-6.07508-.530651.57152-1.193098 1.30814-1.773017 2.03502.150468 1.23839.03871 2.94748-.632005 4.39095.44415-1.16684.658735-2.81962.464055-4.22093-.722929.84995-1.515599 1.7952-2.339909 2.78846.09114.26033.352137 1.22642-.528132 2.235.593619-.9566.468236-1.733.374137-2.05-1.48603 1.79211-2.880445 3.33623-2.880445 3.33623s1.257155-1.68999 2.755905-3.49694c-1.07474-.17824-2.004012.6568-2.004012.6568s.904285-1.15489 2.164726-.85008c.797739-.96094 1.55861-1.86768 2.263425-2.69699-1.922145.0163-3.576523 1.49293-3.576523 1.49293s1.644046-1.79302 3.756877-1.70532c.599739-.70384 1.127966-1.32321 1.800404-2.03915-1.841558.0191-3.484686.9448-5.155758 1.48828 1.741983-.91741 3.346247-1.56873 5.333527-1.70067.620498-.64282 1.118441-1.14465 1.539441-1.56166-.42889.0528-1.544974.23834-3.177585.89917-2.10815.8533-3.345016 1.11156-3.345016 1.11156s1.169252-.44447 3.270602-1.29501c2.0252-.81974 3.377398-.94395 3.493328-.95395.295804-.28938.512395-.47985.618567-.57206-.340384-.2956-.792118-.47622-1.198081-.59354-.60855-.15985-1.089232-.24468-1.663761-.33819-1.895869.0355-3.587896.6811-3.587896.6811s1.272784-.63884 2.874246-.80253c-2.175251-.29946-3.506248-.20206-3.506248-.20206 1.308992-.23585 2.518841-.12863 3.834392.0527-.284419-.24192-.843793-.79396-1.182873-1.88206.607309 1.21878 1.414669 1.84857 1.53479 1.93787.514014.0877 1.070065.20569 1.655712.35398-.507555-1.00974-.608004-2.60991-.309541-3.78013-.134559 1.31996.121618 3.02357.490408 3.82354.491532.14647.833723.28604 1.186751.65991.07211.0315.66462.20182 1.460632.70177z"/>
    <path style="font-variation-settings:normal;vector-effect:none;fill:#ececec;fill-opacity:1;stroke:#000;stroke-width:.264583;stroke-linecap:butt;stroke-linejoin:miter;stroke-miterlimit:4;stroke-dasharray:none;stroke-dashoffset:0;stroke-opacity:1;stop-color:#000" d="M118.74745 148.63527c8.76578-2.12312 14.2321-4.61041 14.2321-4.61041s-2.77544 2.10748-5.22558 4.70877c-2.57389 2.73267-3.04743 4.39397-7.72489 6.87444-4.67745 2.48047-14.3621 4.96094-23.220916 4.96094-8.85882 0-18.54347-2.48047-23.22092-4.96094-4.67746-2.48047-5.151-4.14177-7.72489-6.87444-2.45014-2.60129-5.22558-4.70877-5.22558-4.70877s5.46632 2.48729 14.2321 4.61041c8.93229 2.16347 16.82776 2.20497 21.93929 2.20497 5.111526 0 13.007006-.0415 21.939286-2.20497z"/>
    <path style="color:#000;font-style:normal;font-variant:normal;font-weight:400;font-stretch:normal;font-size:medium;line-height:normal;font-family:sans-serif;font-variant-ligatures:normal;font-variant-position:normal;font-variant-caps:normal;font-variant-numeric:normal;font-variant-alternates:normal;font-variant-east-asian:normal;font-feature-settings:normal;font-variation-settings:normal;text-indent:0;text-align:start;text-decoration:none;text-decoration-line:none;text-decoration-style:solid;text-decoration-color:#000;letter-spacing:normal;word-spacing:normal;text-transform:none;writing-mode:lr-tb;direction:ltr;text-orientation:mixed;dominant-baseline:auto;baseline-shift:baseline;text-anchor:start;white-space:normal;shape-padding:0;shape-margin:0;inline-size:0;clip-rule:nonzero;display:inline;overflow:visible;visibility:visible;opacity:1;isolation:auto;mix-blend-mode:normal;color-interpolation:sRGB;color-interpolation-filters:linearRGB;solid-color:#000;solid-opacity:1;vector-effect:none;fill:#000;fill-opacity:1;fill-rule:nonzero;stroke:none;stroke-width:1;stroke-linecap:butt;stroke-linejoin:miter;stroke-miterlimit:4;stroke-dasharray:none;stroke-dashoffset:0;stroke-opacity:1;color-rendering:auto;image-rendering:auto;shape-rendering:auto;text-rendering:auto;enable-background:accumulate;stop-color:#000;stop-opacity:1" d="M140.39522 148.40541c1.56596.71999 3.04452 1.47459 3.04452 1.47459s-1.5746-.5791-3.15304-1.30509c.40237.74029 1.19958 1.40939 1.78362 1.84795-.92314-.4348-1.65084-1.06649-2.07817-1.98283-.62861-.29122-1.23316-.57777-1.757-.83974.54595 1.3014 1.38108 2.18911 2.34585 3.21221-.98032-.91925-2.32313-1.96813-2.61198-3.34398-.67912-.34518-1.1498-.56674-1.53118-.73691.614 1.12887 1.27081 2.46116 2.26627 3.33675-1.20901-.93896-1.90516-2.09564-2.55152-3.45974-.20861-.0899-.42647-.18463-.61443-.2651-.22439.42315-.52986.7513-.67903 1.28106.13491 1.53808 1.15057 3.39979 1.15057 3.39979s-.98842-1.48214-1.25237-2.98224c-.44221 2.0986-.14108 4.6364-.14108 4.6364s-.4885-2.40645-.0806-4.52944c-.29508.44584-.89992 1.1624-1.92727 1.31672 1.33778-.43696 2.0606-1.89756 2.0606-1.89756.1519-.53582.46627-.87261.68678-1.30483-.76234.77693-1.88663 1.13538-2.7864 1.29501-.17501.4484-.42547.77039-.81054 1.05679.20541-.35619.40727-.68532.58213-1.0449-.6603.0995-1.41146.16592-2.35463.0176.92607-.0525 1.64821-.11675 2.28797-.21085-.26786-.28568-.78022-.49653-1.08391-.67489.54405.0489 1.00386.24719 1.33402.66094.97388-.17739 2.00188-.52778 2.64119-1.19166-.26139-.11989-.64493-.29817-.64493-.29817l.0739-.18397s.68714.32351.86352.39843c.0938-.16382.19238-.32268.29507-.47801-.0755-.1221-.75804-1.26496-.48731-2.62826-.0494 1.19797.45963 2.1805.61392 2.44894.26355-.37608.55441-.73027.88754-1.06815 0 0-.18758-.70454.12919-1.41593-.0888.64033.0319 1.15185.0571 1.25522.46765-.42897 1.00767-.82125 1.70274-1.09115-.48616.38181-.94554.69671-1.34875 1.03534.848-.13828 1.69331-.0726 2.42388.21756-.84902-.2603-1.94955-.15135-2.69312.0238-.573.53166-1.02632 1.11949-1.40663 1.78283.17917.0768.38619.16646.58033.2496 1.3277-.59451 2.62696-.60734 4.01474-.31988-1.23821-.0336-2.61614-.0863-3.74137.4377.38875.17179.8628.39228 1.57147.75241.12308-.0596 1.16465-.53814 2.84376-.30437-1.46942-.0182-2.3366.30747-2.60191.42426.53648.2688 1.16392.56552 1.81436.86661.92713-.38839 1.82473-.24895 2.70061.16227-.7961-.15445-1.67094-.32495-2.41846-.0331z"/>
    <path style="font-variation-settings:normal;vector-effect:none;fill:#3973c6;fill-opacity:1;stroke:#000;stroke-width:.264583;stroke-linecap:butt;stroke-linejoin:miter;stroke-miterlimit:4;stroke-dasharray:none;stroke-dashoffset:0;stroke-opacity:1;stop-color:#000" d="m152.81851 137.93769 7.9375-1.98438s2.15349.4772 2.55134 2.4096c.36302 1.76323.0709 2.4096-1.06305 3.68527-1.13393 1.27567-4.89007 4.89006-4.89007 4.89006.50585-1.34894.59554-3.99452-2.12612-5.45703-2.72465-1.46413-6.16573.21261-6.16573.21261.70638-1.00946 2.83731-2.83856 3.75613-3.75613z"/>
    <g>
      <path style="font-variation-settings:normal;opacity:1;vector-effect:none;fill:#d3b568;fill-opacity:1;stroke:#000;stroke-width:.264583;stroke-linecap:butt;stroke-linejoin:miter;stroke-miterlimit:4;stroke-dasharray:none;stroke-dashoffset:0;stroke-opacity:1;stop-color:#000;stop-opacity:1" d="M50.530691 69.913782s2.445033-.460658 4.57115 1.13393c2.126115 1.594586 2.799387 2.267858 4.783762 2.551338 1.984375.283482 2.451111-1.071656 2.451111-1.071656s-1.030138.08199-2.128633.05871c-1.112441-.02357-2.094242-.29816-3.511654-1.502959-1.41741-1.204801-3.322317-2.388842-5.521822-2.04665-1.930859.300397-.643914.877284-.643914.877284z"/>
      <path style="font-variation-settings:normal;opacity:1;vector-effect:none;fill:#ececec;fill-opacity:1;stroke:#000;stroke-width:.264583;stroke-linecap:butt;stroke-linejoin:miter;stroke-miterlimit:4;stroke-dasharray:none;stroke-dashoffset:0;stroke-opacity:1;stop-color:#000;stop-opacity:1" d="M56.979911 125.68885c2.055246.0709 3.649833-1.73633 3.649833-1.73633.106305.17717.921317 1.27567.921317 1.27567.283482-.21261.708705-.53153.708705-.53153.496094.67327 1.27567 1.66546 1.27567 1.66546s1.204799.21261 1.913504 1.27567c.708705 1.06305.921317 2.19698.921317 2.19698s-1.34654-1.3111-1.630022-1.3111-.779576.0709-.779576.0709c-.389788.35435-1.063058.24804-1.063058.24804 1.084419.85555 1.515962 1.49922 1.807198 2.94113 0 0-1.665457-1.31107-2.055245-1.27567-.389788.0355-.776658.0698-.776658.0698s-.250565.90203-1.503391 1.10249c-1.252826.20045-1.65373-.80181-1.65373-.80181-2.706104-.0501-3.307461 2.35531-3.307461 2.35531-.836722-.34193-1.417661-.98234-1.851904-1.6337-2.627144.27258-3.876265-1.14205-4.041528-2.92289-1.240234-.46065-2.055245-1.3111-2.445033-3.18917-.389788-1.87807.106306-3.43723.106306-3.43723-.425224-.31891-1.27567-.95675-1.27567-.95675-.212612-.92131-.141741-2.4096.389788-3.57896.531529-1.16936.134882-1.95037-.637835-1.9135-.772717.0369-1.353977.13182-1.878069-.42523.504134.61178.7015 1.20115.74414 1.38198.08544.36233.215729 2.57698-.786531 5.3332-1.002261 2.75622-2.397074 4.40995-2.397074 4.40995-.758231-.77359-.957463-2.12472-.879493-2.89189-.597188.40508-.864814.75528-1.250308 1.23816l-.116933-.31739s-.526188.40091-1.478335 1.70385c-.95215 1.30294-1.206002 1.8634-.99339 4.7691.212611 2.90569.86226 4.41767.86226 4.41767 1.067334.4402 2.30532-.44671 3.189175-1.0985l1.594587 1.55915s.673271-.14174 1.311105.99219c.637835 1.13393.425223 2.16155.425223 2.16155s-1.098493-1.20484-1.381975-1.41741c-.283482-.21261-.531529-.14181-.531529-.14181l-.318918.17721c1.381976 1.59459.8032 3.3073.8032 3.3073s-1.594587-1.98438-1.771764-1.98438c-.177176 0-.74414.0354-.74414.0354-.460659.38978-.956753.21261-.956753.21261-.07087.21259-.282048.33496-.282048.33496.708702 2.48047-.02506 3.82271-.02506 3.82271s-1.160488-2.07371-1.414893-2.47795c-.254405-.40421-.852964-.35681-.852964-.35681s-1.415397.57371-2.267858-.49609c-.852461-1.0698-.07087-2.19699-.07087-2.19699-1.27567-1.84263-3.756139-1.70089-3.756139-1.70089l-.14174-.99219c-1.984376-1.13392-1.133929-3.89788-1.133929-3.89788-1.063058-2.62221 1.275669-4.11049 1.275669-4.11049-.07087-.77957-.354352-1.84263-.354352-1.84263 3.96875-1.27567 5.19014-4.7052 5.19014-4.7052-.200452-3.15712-1.904295-3.90881-1.904295-3.90881l-.01265-.93545c-3.006782 1.00226-3.879461 5.26187-3.879461 5.26187-2.054635-1.90429-.801809-4.6104-.801809-4.6104s-1.881587.77893-3.908817.50113c-1.706748-.23388-4.434455-1.48937-4.760738-4.86096-.326284-3.3716 1.07445-5.79252 4.409946-7.81764 3.335498-2.02512 5.428486-3.38561 7.116052-5.111526 1.687566-1.725919 3.718895-4.446042 2.706104-6.865486-1.01279-2.419443-4.059156-2.605878-5.863225-.902034-1.80407 1.703843-1.503391 3.858704-1.503391 3.858704-1.603618-1.052374-1.002261-2.95667-1.002261-2.95667s-1.486662.664198-3.858704.551244c-2.323925-.110663-3.357573-1.002261-3.357573-1.002261.354489-.161022.594095-.229142 1.252826-.200452-4.159381-1.403165-4.192791-3.223936-4.192791-3.223936 2.004522 1.353049 4.24559 2.002504 6.915599-.000003 2.670009-2.002507 4.911077-2.15486 4.911077-2.15486s-2.689602-.93813-3.558025-2.906556c-.868423-1.968427.350791-2.756218.350791-2.756218-.300678-3.257347 1.804069-4.660512 1.804069-4.660512s-1.123463 2.433462.451018 5.412208c1.57448 2.978746 2.291181 2.314997 5.963451 4.961191 3.67227 2.646194 4.610399 6.464582 3.908817 9.321025-.701581 2.856442-3.883343 6.251272-7.817634 8.970232-4.262055 2.94548-5.540909 4.62442-4.810851 7.31651.730057 2.69209 3.907853 2.98064 6.564808 1.20271 2.734139-1.82959 3.658251-3.80859 5.512434-7.46685 1.854182-3.65825 3.80859-6.163899 4.660512-8.870003.851925-2.706104.810555-6.216945.810555-6.216945-1.935748-3.510745-4.66955-4.75876-5.67152-8.984009 0 0-.637451 1.160937-1.854182 1.353052-1.21673.192115-1.603617-.300678-1.603617-.300678 1.202716-1.453278 1.102487-2.756217 1.252826-6.013565.150339-3.257347 1.252826-5.412208 1.252826-5.412208-1.80407.300678-3.006782-.651469-3.006782-.651469 3.257347-1.854183 3.257347-4.009043 5.061416-6.514695 1.80407-2.505652 4.293426-3.310786 4.293426-3.310786-.815011-.67327-1.240234-1.736328-1.240234-1.736328 3.862444.956752 5.252245-.718991 8.398158-.815011 3.145913-.09603 4.960938.956752 4.960938.956752s-.566964 1.27567.141741 1.94894c.708705.67327 1.700892.921317 1.700892.921317 2.142654-.485128 2.941129-.389788 3.011999.566964.07087.956752-1.133929.885882-1.133929.885882 0 .389788-.137889.766018-.137889.766018 2.243101.218923 4.025839 1.284438 5.211756 2.856443 0 0-.400905.676526-.701583 1.052374-.295334.369168-.701582.200452-.701582.200452.20042 1.875654-1.134031 2.547558-2.054635 2.605878-.50113.851921-1.252826.601356-1.252826.601356l.200452-.751695c-1.353052-.65147-.952147-1.703844-.952147-1.703844s-1.052374-.55124-2.706104-.50113c-1.65373.05011-2.36766.400683-2.856443 1.002261-.488783.601578-.766619 1.330276-.766619 1.330276s1.195279.316001 2.721027 1.025036c1.525749.709035 2.956669 1.653731 2.956669 1.653731.200452-.200452.501131-.751696.501131-.751696.551243.601357.144259 1.294341.144259 1.294341.263707.31686.326927.909877-.132621 1.397085-.459548.487209-1.538306.678307-2.390227-.524405-.802095-1.195051-1.647183-1.305173-2.582602-1.465438-1.553504 2.305199.74776 3.835997.74776 3.835997 1.136082.02405 1.976569.06848 3.704131.630694 1.727562.56221 3.215404 1.797438 3.215404 1.797438 1.553504-1.252826 3.25285-2.533918 3.95893-5.963451.701582-3.407687.50113-5.512434.50113-5.512434 1.753956-.851922 4.522927-2.312136 4.522927-2.312136 1.240234 1.098493 3.386577 1.25141 3.386577 1.25141 0 .05011-.05011.300678-.05011.300678.902035.175395 1.829124.100225 1.829124.100225.45102.325736.651471.876982.651471.927092l-5.13198 5.145483s-.425224-.03543-.921317-.354352c0 0-.141741.850446-.956753 1.34654 0 0-.07259 2.364841-.673948 4.82038-.601357 2.455539-1.703843 3.908817-1.703843 3.908817s.551243 1.553504-.100227 3.407687c-.645085 1.836009-1.843506 2.991238-3.346897 3.793046-.826411 1.655184-1.864859 2.521194-1.864859 2.521194s3.173826 3.190532 5.579252 5.545845c2.405426 2.355314 2.405426 3.808594 2.505652 5.712884.100226 1.9043 1.052374 3.30746 1.403165 4.2095.350791.90203.05637 2.01496.05637 2.01496l-.437256.009s-.744141.81501-1.842634.35435c-.463858.65338-1.535846 1.25425-2.622208.60226 1.349785-.29568.777173-.80589 1.133929-1.66545l-.141741-.38979s-.460659.14174-.992188 0c0 0-1.381975 1.13393-3.082868.46066 1.142281-.45634.861998-.98618 1.417411-1.7009 0 0-.779576-.1063-.992188-1.02762-.212611-.92132.283482-1.70089.318918-2.62221.03543-.92132-.496094-.92132-1.559152-1.45285-1.063058-.53152-3.118304-1.80719-4.464844-3.047429h-1.523716s-.919805 1.799979-3.826361 2.601789c-2.906556.80181-4.911078 1.80407-4.860965 3.85871.05011 2.05463 1.403165 3.70836 3.357574 4.20949 1.954408.50113 4.059156-1.25283 4.059156-1.25283s1.603617 1.1526 2.355313 2.85645c.751695 1.70384.05011 2.75621.05011 2.75621s-.751696-.20045-1.553504-.4009c.07089.82626.180441 1.65893.45102 2.45554 0 0-.851922.15034-1.703843-.30068-.733367 1.54639-1.042229 2.7624-1.102487 4.66051 0 0 3.677732 2.49966 5.797796 4.28167z"/>
      <path style="font-variation-settings:normal;opacity:1;vector-effect:none;fill:none;fill-opacity:1;stroke:#000;stroke-width:.264583;stroke-linecap:butt;stroke-linejoin:miter;stroke-miterlimit:4;stroke-dasharray:none;stroke-dashoffset:0;stroke-opacity:1;stop-color:#000;stop-opacity:1" d="M61.065059 90.438487c.412077-.825331.771433-1.846879.923036-3.055118.441013-3.514769-.815304-5.756733-2.888122-7.803868M41.368706 90.334172c1.074716 2.140639 1.495597 3.561567 1.594871 6.801597 1.805754-2.864862 2.319778-6.034575.952147-9.872268 4.160605.283482 5.670028 2.529468 6.095251 4.159491 0 0 1.162401-2.124246.653305-4.443465-.509096-2.319217-1.733218-3.4598-3.222974-3.902219m7.613288-21.301824c-2.142652.485129-4.642019.460659-6.839006-.496094 0 0 .520074 1.776969 2.976563 2.232422 2.578318.478042 1.898088-.620639 5.740513-.283482m-3.29548.141741s-.139883.860626.694028 1.129629c.83391.269004 1.298051-.554345 2.463563-.505352M52.18044 77.15137c-2.357326-.134494-3.897697-1.118314-4.756803-3.284754-.53792-1.356493-.417719-2.663414.113771-3.718986.50422-1.001412 1.38215-1.76952 2.291655-2.394804 1.8682-1.284387 1.954408-2.3052 1.854182-4.109269m-4.145837 6.504073c-.418263 1.003832-.01159 1.883306.796297 2.29387.809254.411259 2.106788.732132 3.098975.873873m4.46006.05011s.357163.249325.64539.542645m.958227-3.348972s.432257.203491 1.052374.150339m2.054635-2.605878c-.154993-.696036-.628901-1.14798-1.553504-1.094135 0 0 .551243-.651469.977204-.902034 0 0 .626413.785104.5763 1.996169zm-19.510267-7.603803s1.07487 1.027623 3.165551 1.133929m14.941551 31.325939-1.80407-1.65373s.455256-1.856279-.100226-3.407686c-.54675-1.52702-1.923533-3.767362-4.510173-4.309722-1.659358-.34793-3.46261-.181424-5.344426-.511236-1.150793-.201691-2.330967-.588992-3.525582-1.393059-2.996616-2.016952-4.799004-4.496156-4.96119-8.118312-.162186-3.622157 1.22906-5.624717 1.22906-5.624717 2.228808.290197 3.999041-.01446 5.775949-1.169363-2.473119-.324557-3.195201-1.868272-3.047433-3.153739.460658.283482 1.842634.815011 3.36635.106306 1.523717-.708706 1.771763-2.409598.67327-3.22461-1.098493-.815011-2.834821-.531529-2.834821-.531529-.244023 2.003571.576098 3.288106 1.948939 3.330916 0 0-.838635-.87407-.838634-1.724517 0 0 .602399-.177176 1.275669.177171.673271.354353.696894 1.547346-.224423 1.972569m25.140969 3.619145s-.159105.727581-.726069.940193M36.52195 140.34728s-.336443-.96861-.05636-1.50076c.250565-.47608 1.378107-.60136 1.728899-.42596.350791.1754.620381.93877.620381.93877m1.238801-.54757s-.130282-.49142-.105225-.99255c.02506-.50113 1.330659-.95704 1.817929-.36577m-.464877-.21054s-.465394-.79855-.997963-1.4343c-.946215.27324-2.474017.48525-2.824828-.58754m4.783759.46065c-.839362.19679-.884017 1.09443-.177176 1.59452m20.812311-8.43362s-.907775-.73698-1.559244-.56159c-.65147.1754-.751696.90204-.275622 1.45328.476074.55124.810161.84357.810161.84357m2.087763-1.9833s-.517555-.48894-1.018685-.99007c-.50113-.50113-.141072-1.15676.593462-1.24238m-21.112478-13.64525s3.614218 2.22573 7.7736 1.57426m13.645983-4.93789c-.413588-.17333-.562385-.62796-.702625-1.03049-.149862-.43016-.431303-.15069-.962832-.20975m2.799386 1.63003s.209098-.43641.537609-.39444c.328511.042.318917.31032.850446.5938s.100224.86383.100224.86383m.147823-.43431s.669178-.31086.763961-.8118c.03377-.17849-.03004-.29998-.179453-.57304 0 0 1.252042.4255 1.110303 1.4648"/>
      <path style="color:#000;font-style:normal;font-variant:normal;font-weight:400;font-stretch:normal;font-size:medium;line-height:normal;font-family:sans-serif;font-variant-ligatures:normal;font-variant-position:normal;font-variant-caps:normal;font-variant-numeric:normal;font-variant-alternates:normal;font-variant-east-asian:normal;font-feature-settings:normal;font-variation-settings:normal;text-indent:0;text-align:start;text-decoration:none;text-decoration-line:none;text-decoration-style:solid;text-decoration-color:#000;letter-spacing:normal;word-spacing:normal;text-transform:none;writing-mode:lr-tb;direction:ltr;text-orientation:mixed;dominant-baseline:auto;baseline-shift:baseline;text-anchor:start;white-space:normal;shape-padding:0;shape-margin:0;inline-size:0;clip-rule:nonzero;display:inline;overflow:visible;visibility:visible;isolation:auto;mix-blend-mode:normal;color-interpolation:sRGB;color-interpolation-filters:linearRGB;solid-color:#000;solid-opacity:1;vector-effect:none;fill:#000;fill-opacity:1;fill-rule:nonzero;stroke:none;stroke-linecap:butt;stroke-linejoin:miter;stroke-miterlimit:4;stroke-dasharray:none;stroke-dashoffset:0;stroke-opacity:1;color-rendering:auto;image-rendering:auto;shape-rendering:auto;text-rendering:auto;enable-background:accumulate;stop-color:#000" d="M67.214766 70.423284c.866272-.559457.874823-1.100538.884843-1.599065.07534-.0016.403187-.000873.931641-.166016l-.07813-.251953c-.54899.17156-1.069644.08794-1.069644.08794-.04948.593187-.02879 1.230155-.792714 1.722318-.763921.492163-1.464791.440716-1.464791.440716s.722518.325516 1.58879-.233942zm-32.587813.494685.236328.117187s.418614-.830226.717773-1.293945c-.552761.338088-.954101 1.176758-.954101 1.176758zm32.333985 3.701172-.142579-.222657c-.692167.44342-1.65332.300781-1.65332.300781s.97616.44702 1.795899-.07812zm-42.103516 7.242187c-.394988-.78393-.404297-1.498047-.404297-1.498047l-.263672.002s.0081.774667.431641 1.615235c.423525.840567 1.275293 1.756727 2.940429 1.90918-1.542095-.398792-2.309113-1.244391-2.704101-2.028321zm14.835937 3.75c.798542.804708 2.126321 1.641035 4.212891 1.783203l.01758-.263672c-2.024154-.137915-3.28261-.940801-4.042969-1.707031-.760359-.766229-1.138671-1.442383-1.138671-1.442383s.152629.825175.951171 1.629883zm-10.162109.609375c-.696312-.109181-1.338494-.125533-1.962891-.320312l-.07813.253906c.669114.208728 1.325466.220405 2 .326172.674535.105766 1.367512.299576 2.21875.753906-.733127-.696887-1.481422-.904491-2.177734-1.013672zm-9.609375 5.056641-.05469.257812c1.147888.237519 2.76637.298445 4.037109-.629883-1.320894.650968-2.874612.601296-3.982422.372071zm5.8125.736328.248047.08789s.290891-.773611.927734-1.095703c-.866548.113205-1.175781 1.007813-1.175781 1.007813zm23.423828 5.658203c.814375 1.116765 2.272076 2.273325 4.789063 2.423825l.01758-.265622c-2.443139-.146087-3.816236-1.248236-4.59375-2.314453s-1.079102-2.066407-1.079102-2.066407.05184 1.105892.866211 2.222657zm17.064453 8.507815c.07471.96228.284104 2.11489.869141 2.88672l.210937-.16016c-.525266-.69297-.741518-1.80672-.814453-2.74609-.07293-.93938-.141601-1.70899-.141601-1.70899s-.198736.76624-.124024 1.72852zm-1.603515 1.6582c-.0056.67393.03574 1.0362.08398 1.51563h.263672c-.04897-.48751-.08694-.88115-.08398-1.51368.003-.63253.101771-1.82769.341797-2.73926-.504114.8602-.599898 2.06338-.605469 2.73731zm-22.638672 3.32617c.255237 2.45028 1.693359 4.09961 1.693359 4.09961l.201172-.17383s-1.384967-1.59256-1.630859-3.95312c-.247882-2.37967.01758-5.39844.01758-5.39844s-.534498 2.99459-.281249 5.42578zm-2.861747 9.0699c-1.163741-.66651-3.351072-2.69674-3.86091-5.26912-.509838-2.57238-.433455-3.6771.248047-5.42285-.844811 1.63144-1.049417 2.94789-.505859 5.47949.543558 2.5316 2.874373 4.80695 4.048549 5.47615-.01992.0928-.02351.18958-.04074.28557-.35529 1.97948-.04883 3.57227-.04883 3.57227l.259766-.0508s-.297465-1.54527.04883-3.47461c.345244-1.9235 1.173828-3.28126 1.173828-3.28126s-.904624 1.0333-1.322684 2.68514zm14.287528-5.62454.261719-.0352c-.153429-1.09007-.276889-1.54433-.681641-2.47166.150555.99863.267799 1.42606.419922 2.50686zm-20.193359.95113h.265625s.0043-2.20168.114257-3.21875c-.386024 1.03816-.379882 3.21875-.379882 3.21875zm19.017578 1.30661.109375-.24024s-1.790127-.7979-2.360352-3.1709c-.128848 2.07741 2.250977 3.41114 2.250977 3.41114zm-23.603516-.78122.07422.2539s.630195-.25594 1.377511-1.08635c-.886268.60064-1.45173.83245-1.451731.83245zm11.701172 7.29101.255859.0664c.415855-1.59414 1.297499-2.25433 1.755859-3.40723-.660006.96779-1.577409 1.67594-2.011718 3.34082zM33.6875 134.81932c-.21542-5.08111-1.308857-7.73284-1.337891-7.82325.715683-.41399 1.502735-1.21575 2.103516-2.34375.623989-1.17157 1.043416-2.64921.941406-4.25586v.00002l-.263672.0176c.09844 1.55048-.308329 2.97965-.912109 4.11328-.60378 1.13363-1.445814 1.89863-2.142857 2.33342 0 0 1.0654 2.83033 1.611607 7.95854zm27.960938-9.50291-.195313-.17774c-1.135357 1.26021-3.150391 1.64844-3.150391 1.64844s2.118711-.10879 3.345704-1.4707zm-12.265626 3.36328.263672-.006c.02171-1.12045.101549-2.24268.566406-3.29095-.663716.91227-.848492 2.28469-.830078 3.29695zm9.132811-1.0068s1.684747.53316 3.166014-.38183c.05538.0739.689393.91731 1.101562 1.61914l.228516-.13477c-.444116-.75623-1.205744-1.85282-1.205744-1.85282-1.485576.93854-3.290348.75028-3.290348.75028zm-5.07617 3.99117.232422-.12695c-1.207725-2.23156-.652344-4.04883-.652344-4.04883s-.835987 1.85519.419922 4.17578zm4.546875-1.91214c.237915.23575.452259.44677.59961 1.1543l.259765-.0547c-.156456-.75124-.43301-1.04849-.673828-1.28711-.240818-.23862-.44038-.41247-.692383-1.02441.0015.70906.268921.97618.506836 1.21192zm-28.957031 1.26175.244141.0996c.567815-1.3796 1.155383-1.77475 2.358398-2.28222-1.309201.26475-2.015715.75684-2.602539 2.18262zm1.125001 3.96094.263672-.0273c-.175083-1.78588.134675-2.47141 1.177734-4.02639-1.288827.88323-1.620677 2.2251-1.441406 4.05369zm7.61328 2.45109c-.423024-.0299-.926952-.14457-1.263672-.44922-.326935-.2958-.489944-.87894-.554687-1.39258-.06474-.51363-.170897-.95308-.170897-.95308s-.160917.4458-.09278.98637c.06814.54056.223419 1.17917.640625 1.55664.40742.36862.967876.48352 1.421875.51562.406103.0287.663311-.0124.728515-.0215.0509.0525.566831.59478.488282 1.3418l.263672.0293c.09759-.92808-.625333-1.69042-.625333-1.69042s-.412579.10697-.835603.0772z"/>
    </g>
    <g>
      <path style="font-variation-settings:normal;opacity:1;vector-effect:none;fill:#d3b568;fill-opacity:1;stroke:#000;stroke-width:.264583;stroke-linecap:butt;stroke-linejoin:miter;stroke-miterlimit:4;stroke-dasharray:none;stroke-dashoffset:0;stroke-opacity:1;stop-color:#000;stop-opacity:1" d="M50.530691 69.913782s2.445033-.460658 4.57115 1.13393c2.126115 1.594586 2.799387 2.267858 4.783762 2.551338 1.984375.283482 2.451111-1.071656 2.451111-1.071656s-1.030138.08199-2.128633.05871c-1.112441-.02357-2.094242-.29816-3.511654-1.502959-1.41741-1.204801-3.322317-2.388842-5.521822-2.04665-1.930859.300397-.643914.877284-.643914.877284z" transform="matrix(-1 0 0 1 193.61632 0)"/>
      <path style="font-variation-settings:normal;opacity:1;vector-effect:none;fill:#ececec;fill-opacity:1;stroke:#000;stroke-width:.264583;stroke-linecap:butt;stroke-linejoin:miter;stroke-miterlimit:4;stroke-dasharray:none;stroke-dashoffset:0;stroke-opacity:1;stop-color:#000;stop-opacity:1" d="M56.979911 125.68885c2.055246.0709 3.649833-1.73633 3.649833-1.73633.106305.17717.921317 1.27567.921317 1.27567.283482-.21261.708705-.53153.708705-.53153.496094.67327 1.27567 1.66546 1.27567 1.66546s1.204799.21261 1.913504 1.27567c.708705 1.06305.921317 2.19698.921317 2.19698s-1.34654-1.3111-1.630022-1.3111-.779576.0709-.779576.0709c-.389788.35435-1.063058.24804-1.063058.24804 1.084419.85555 1.515962 1.49922 1.807198 2.94113 0 0-1.665457-1.31107-2.055245-1.27567-.389788.0355-.776658.0698-.776658.0698s-.250565.90203-1.503391 1.10249c-1.252826.20045-1.65373-.80181-1.65373-.80181-2.706104-.0501-3.307461 2.35531-3.307461 2.35531-.836722-.34193-1.417661-.98234-1.851904-1.6337-2.627144.27258-3.876265-1.14205-4.041528-2.92289-1.240234-.46065-2.055245-1.3111-2.445033-3.18917-.389788-1.87807.106306-3.43723.106306-3.43723-.425224-.31891-1.27567-.95675-1.27567-.95675-.212612-.92131-.141741-2.4096.389788-3.57896.531529-1.16936.134882-1.95037-.637835-1.9135-.772717.0369-1.353977.13182-1.878069-.42523.504134.61178.7015 1.20115.74414 1.38198.08544.36233.215729 2.57698-.786531 5.3332-1.002261 2.75622-2.397074 4.40995-2.397074 4.40995-.758231-.77359-.957463-2.12472-.879493-2.89189-.597188.40508-.864814.75528-1.250308 1.23816l-.116933-.31739s-.526188.40091-1.478335 1.70385c-.95215 1.30294-1.206002 1.8634-.99339 4.7691.212611 2.90569.86226 4.41767.86226 4.41767 1.067334.4402 2.30532-.44671 3.189175-1.0985l1.594587 1.55915s.673271-.14174 1.311105.99219c.637835 1.13393.425223 2.16155.425223 2.16155s-1.098493-1.20484-1.381975-1.41741c-.283482-.21261-.531529-.14181-.531529-.14181l-.318918.17721c1.381976 1.59459.8032 3.3073.8032 3.3073s-1.594587-1.98438-1.771764-1.98438c-.177176 0-.74414.0354-.74414.0354-.460659.38978-.956753.21261-.956753.21261-.07087.21259-.282048.33496-.282048.33496.708702 2.48047-.02506 3.82271-.02506 3.82271s-1.160488-2.07371-1.414893-2.47795c-.254405-.40421-.852964-.35681-.852964-.35681s-1.415397.57371-2.267858-.49609c-.852461-1.0698-.07087-2.19699-.07087-2.19699-1.27567-1.84263-3.756139-1.70089-3.756139-1.70089l-.14174-.99219c-1.984376-1.13392-1.133929-3.89788-1.133929-3.89788-1.063058-2.62221 1.275669-4.11049 1.275669-4.11049-.07087-.77957-.354352-1.84263-.354352-1.84263 3.96875-1.27567 5.19014-4.7052 5.19014-4.7052-.200452-3.15712-1.904295-3.90881-1.904295-3.90881l-.01265-.93545c-3.006782 1.00226-3.879461 5.26187-3.879461 5.26187-2.054635-1.90429-.801809-4.6104-.801809-4.6104s-1.881587.77893-3.908817.50113c-1.706748-.23388-4.434455-1.48937-4.760738-4.86096-.326284-3.3716 1.07445-5.79252 4.409946-7.81764 3.335498-2.02512 5.428486-3.38561 7.116052-5.111526 1.687566-1.725919 3.718895-4.446042 2.706104-6.865486-1.01279-2.419443-4.059156-2.605878-5.863225-.902034-1.80407 1.703843-1.503391 3.858704-1.503391 3.858704-1.603618-1.052374-1.002261-2.95667-1.002261-2.95667s-1.486662.664198-3.858704.551244c-2.323925-.110663-3.357573-1.002261-3.357573-1.002261.354489-.161022.594095-.229142 1.252826-.200452-4.159381-1.403165-4.192791-3.223936-4.192791-3.223936 2.004522 1.353049 4.24559 2.002504 6.915599-.000003 2.670009-2.002507 4.911077-2.15486 4.911077-2.15486s-2.689602-.93813-3.558025-2.906556c-.868423-1.968427.350791-2.756218.350791-2.756218-.300678-3.257347 1.804069-4.660512 1.804069-4.660512s-1.123463 2.433462.451018 5.412208c1.57448 2.978746 2.291181 2.314997 5.963451 4.961191 3.67227 2.646194 4.610399 6.464582 3.908817 9.321025-.701581 2.856442-3.883343 6.251272-7.817634 8.970232-4.262055 2.94548-5.540909 4.62442-4.810851 7.31651.730057 2.69209 3.907853 2.98064 6.564808 1.20271 2.734139-1.82959 3.658251-3.80859 5.512434-7.46685 1.854182-3.65825 3.80859-6.163899 4.660512-8.870003.851925-2.706104.810555-6.216945.810555-6.216945-1.935748-3.510745-4.66955-4.75876-5.67152-8.984009 0 0-.637451 1.160937-1.854182 1.353052-1.21673.192115-1.603617-.300678-1.603617-.300678 1.202716-1.453278 1.102487-2.756217 1.252826-6.013565.150339-3.257347 1.252826-5.412208 1.252826-5.412208-1.80407.300678-3.006782-.651469-3.006782-.651469 3.257347-1.854183 3.257347-4.009043 5.061416-6.514695 1.80407-2.505652 4.293426-3.310786 4.293426-3.310786-.815011-.67327-1.240234-1.736328-1.240234-1.736328 3.862444.956752 5.252245-.718991 8.398158-.815011 3.145913-.09603 4.960938.956752 4.960938.956752s-.566964 1.27567.141741 1.94894c.708705.67327 1.700892.921317 1.700892.921317 2.142654-.485128 2.941129-.389788 3.011999.566964.07087.956752-1.133929.885882-1.133929.885882 0 .389788-.137889.766018-.137889.766018 2.243101.218923 4.025839 1.284438 5.211756 2.856443 0 0-.400905.676526-.701583 1.052374-.295334.369168-.701582.200452-.701582.200452.20042 1.875654-1.134031 2.547558-2.054635 2.605878-.50113.851921-1.252826.601356-1.252826.601356l.200452-.751695c-1.353052-.65147-.952147-1.703844-.952147-1.703844s-1.052374-.55124-2.706104-.50113c-1.65373.05011-2.36766.400683-2.856443 1.002261-.488783.601578-.766619 1.330276-.766619 1.330276s1.195279.316001 2.721027 1.025036c1.525749.709035 2.956669 1.653731 2.956669 1.653731.200452-.200452.501131-.751696.501131-.751696.551243.601357.144259 1.294341.144259 1.294341.263707.31686.326927.909877-.132621 1.397085-.459548.487209-1.538306.678307-2.390227-.524405-.802095-1.195051-1.647183-1.305173-2.582602-1.465438-1.553504 2.305199.74776 3.835997.74776 3.835997 1.136082.02405 1.976569.06848 3.704131.630694 1.727562.56221 3.215404 1.797438 3.215404 1.797438 1.553504-1.252826 3.25285-2.533918 3.95893-5.963451.701582-3.407687.50113-5.512434.50113-5.512434 1.753956-.851922 4.522927-2.312136 4.522927-2.312136 1.240234 1.098493 3.386577 1.25141 3.386577 1.25141 0 .05011-.05011.300678-.05011.300678.902035.175395 1.829124.100225 1.829124.100225.45102.325736.651471.876982.651471.927092l-5.13198 5.145483s-.425224-.03543-.921317-.354352c0 0-.141741.850446-.956753 1.34654 0 0-.07259 2.364841-.673948 4.82038-.601357 2.455539-1.703843 3.908817-1.703843 3.908817s.551243 1.553504-.100227 3.407687c-.645085 1.836009-1.843506 2.991238-3.346897 3.793046-.826411 1.655184-1.864859 2.521194-1.864859 2.521194s3.173826 3.190532 5.579252 5.545845c2.405426 2.355314 2.405426 3.808594 2.505652 5.712884.100226 1.9043 1.052374 3.30746 1.403165 4.2095.350791.90203.05637 2.01496.05637 2.01496l-.437256.009s-.744141.81501-1.842634.35435c-.463858.65338-1.535846 1.25425-2.622208.60226 1.349785-.29568.777173-.80589 1.133929-1.66545l-.141741-.38979s-.460659.14174-.992188 0c0 0-1.381975 1.13393-3.082868.46066 1.142281-.45634.861998-.98618 1.417411-1.7009 0 0-.779576-.1063-.992188-1.02762-.212611-.92132.283482-1.70089.318918-2.62221.03543-.92132-.496094-.92132-1.559152-1.45285-1.063058-.53152-3.118304-1.80719-4.464844-3.047429h-1.523716s-.919805 1.799979-3.826361 2.601789c-2.906556.80181-4.911078 1.80407-4.860965 3.85871.05011 2.05463 1.403165 3.70836 3.357574 4.20949 1.954408.50113 4.059156-1.25283 4.059156-1.25283s1.603617 1.1526 2.355313 2.85645c.751695 1.70384.05011 2.75621.05011 2.75621s-.751696-.20045-1.553504-.4009c.07089.82626.180441 1.65893.45102 2.45554 0 0-.851922.15034-1.703843-.30068-.733367 1.54639-1.042229 2.7624-1.102487 4.66051 0 0 3.677732 2.49966 5.797796 4.28167z" transform="matrix(-1 0 0 1 193.61632 0)"/>
      <path style="font-variation-settings:normal;opacity:1;vector-effect:none;fill:none;fill-opacity:1;stroke:#000;stroke-width:.264583;stroke-linecap:butt;stroke-linejoin:miter;stroke-miterlimit:4;stroke-dasharray:none;stroke-dashoffset:0;stroke-opacity:1;stop-color:#000;stop-opacity:1" d="M61.065059 90.438487c.412077-.825331.771433-1.846879.923036-3.055118.441013-3.514769-.815304-5.756733-2.888122-7.803868M41.368706 90.334172c1.074716 2.140639 1.495597 3.561567 1.594871 6.801597 1.805754-2.864862 2.319778-6.034575.952147-9.872268 4.160605.283482 5.670028 2.529468 6.095251 4.159491 0 0 1.162401-2.124246.653305-4.443465-.509096-2.319217-1.733218-3.4598-3.222974-3.902219m7.613288-21.301824c-2.142652.485129-4.642019.460659-6.839006-.496094 0 0 .520074 1.776969 2.976563 2.232422 2.578318.478042 1.898088-.620639 5.740513-.283482m-3.29548.141741s-.139883.860626.694028 1.129629c.83391.269004 1.298051-.554345 2.463563-.505352M52.18044 77.15137c-2.357326-.134494-3.897697-1.118314-4.756803-3.284754-.53792-1.356493-.417719-2.663414.113771-3.718986.50422-1.001412 1.38215-1.76952 2.291655-2.394804 1.8682-1.284387 1.954408-2.3052 1.854182-4.109269m-4.145837 6.504073c-.418263 1.003832-.01159 1.883306.796297 2.29387.809254.411259 2.106788.732132 3.098975.873873m4.46006.05011s.357163.249325.64539.542645m.958227-3.348972s.432257.203491 1.052374.150339m2.054635-2.605878c-.154993-.696036-.628901-1.14798-1.553504-1.094135 0 0 .551243-.651469.977204-.902034 0 0 .626413.785104.5763 1.996169zm-19.510267-7.603803s1.07487 1.027623 3.165551 1.133929m14.941551 31.325939-1.80407-1.65373s.455256-1.856279-.100226-3.407686c-.54675-1.52702-1.923533-3.767362-4.510173-4.309722-1.659358-.34793-3.46261-.181424-5.344426-.511236-1.150793-.201691-2.330967-.588992-3.525582-1.393059-2.996616-2.016952-4.799004-4.496156-4.96119-8.118312-.162186-3.622157 1.22906-5.624717 1.22906-5.624717 2.228808.290197 3.999041-.01446 5.775949-1.169363-2.473119-.324557-3.195201-1.868272-3.047433-3.153739.460658.283482 1.842634.815011 3.36635.106306 1.523717-.708706 1.771763-2.409598.67327-3.22461-1.098493-.815011-2.834821-.531529-2.834821-.531529-.244023 2.003571.576098 3.288106 1.948939 3.330916 0 0-.838635-.87407-.838634-1.724517 0 0 .602399-.177176 1.275669.177171.673271.354353.696894 1.547346-.224423 1.972569m25.140969 3.619145s-.159105.727581-.726069.940193M36.52195 140.34728s-.336443-.96861-.05636-1.50076c.250565-.47608 1.378107-.60136 1.728899-.42596.350791.1754.620381.93877.620381.93877m1.238801-.54757s-.130282-.49142-.105225-.99255c.02506-.50113 1.330659-.95704 1.817929-.36577m-.464877-.21054s-.465394-.79855-.997963-1.4343c-.946215.27324-2.474017.48525-2.824828-.58754m4.783759.46065c-.839362.19679-.884017 1.09443-.177176 1.59452m20.812311-8.43362s-.907775-.73698-1.559244-.56159c-.65147.1754-.751696.90204-.275622 1.45328.476074.55124.810161.84357.810161.84357m2.087763-1.9833s-.517555-.48894-1.018685-.99007c-.50113-.50113-.141072-1.15676.593462-1.24238m-21.112478-13.64525s3.614218 2.22573 7.7736 1.57426m13.645983-4.93789c-.413588-.17333-.562385-.62796-.702625-1.03049-.149862-.43016-.431303-.15069-.962832-.20975m2.799386 1.63003s.209098-.43641.537609-.39444c.328511.042.318917.31032.850446.5938s.100224.86383.100224.86383m.147823-.43431s.669178-.31086.763961-.8118c.03377-.17849-.03004-.29998-.179453-.57304 0 0 1.252042.4255 1.110303 1.4648" transform="matrix(-1 0 0 1 193.61632 0)"/>
      <path style="color:#000;font-style:normal;font-variant:normal;font-weight:400;font-stretch:normal;font-size:medium;line-height:normal;font-family:sans-serif;font-variant-ligatures:normal;font-variant-position:normal;font-variant-caps:normal;font-variant-numeric:normal;font-variant-alternates:normal;font-variant-east-asian:normal;font-feature-settings:normal;font-variation-settings:normal;text-indent:0;text-align:start;text-decoration:none;text-decoration-line:none;text-decoration-style:solid;text-decoration-color:#000;letter-spacing:normal;word-spacing:normal;text-transform:none;writing-mode:lr-tb;direction:ltr;text-orientation:mixed;dominant-baseline:auto;baseline-shift:baseline;text-anchor:start;white-space:normal;shape-padding:0;shape-margin:0;inline-size:0;clip-rule:nonzero;display:inline;overflow:visible;visibility:visible;isolation:auto;mix-blend-mode:normal;color-interpolation:sRGB;color-interpolation-filters:linearRGB;solid-color:#000;solid-opacity:1;vector-effect:none;fill:#000;fill-opacity:1;fill-rule:nonzero;stroke:none;stroke-linecap:butt;stroke-linejoin:miter;stroke-miterlimit:4;stroke-dasharray:none;stroke-dashoffset:0;stroke-opacity:1;color-rendering:auto;image-rendering:auto;shape-rendering:auto;text-rendering:auto;enable-background:accumulate;stop-color:#000" d="M67.214766 70.423284c.866272-.559457.874823-1.100538.884843-1.599065.07534-.0016.403187-.000873.931641-.166016l-.07813-.251953c-.54899.17156-1.069644.08794-1.069644.08794-.04948.593187-.02879 1.230155-.792714 1.722318-.763921.492163-1.464791.440716-1.464791.440716s.722518.325516 1.58879-.233942zm-32.587813.494685.236328.117187s.418614-.830226.717773-1.293945c-.552761.338088-.954101 1.176758-.954101 1.176758zm32.333985 3.701172-.142579-.222657c-.692167.44342-1.65332.300781-1.65332.300781s.97616.44702 1.795899-.07812zm-42.103516 7.242187c-.394988-.78393-.404297-1.498047-.404297-1.498047l-.263672.002s.0081.774667.431641 1.615235c.423525.840567 1.275293 1.756727 2.940429 1.90918-1.542095-.398792-2.309113-1.244391-2.704101-2.028321zm14.835937 3.75c.798542.804708 2.126321 1.641035 4.212891 1.783203l.01758-.263672c-2.024154-.137915-3.28261-.940801-4.042969-1.707031-.760359-.766229-1.138671-1.442383-1.138671-1.442383s.152629.825175.951171 1.629883zm-10.162109.609375c-.696312-.109181-1.338494-.125533-1.962891-.320312l-.07813.253906c.669114.208728 1.325466.220405 2 .326172.674535.105766 1.367512.299576 2.21875.753906-.733127-.696887-1.481422-.904491-2.177734-1.013672zm-9.609375 5.056641-.05469.257812c1.147888.237519 2.76637.298445 4.037109-.629883-1.320894.650968-2.874612.601296-3.982422.372071zm5.8125.736328.248047.08789s.290891-.773611.927734-1.095703c-.866548.113205-1.175781 1.007813-1.175781 1.007813zm23.423828 5.658203c.814375 1.116765 2.272076 2.273325 4.789063 2.423825l.01758-.265622c-2.443139-.146087-3.816236-1.248236-4.59375-2.314453s-1.079102-2.066407-1.079102-2.066407.05184 1.105892.866211 2.222657zm17.064453 8.507815c.07471.96228.284104 2.11489.869141 2.88672l.210937-.16016c-.525266-.69297-.741518-1.80672-.814453-2.74609-.07293-.93938-.141601-1.70899-.141601-1.70899s-.198736.76624-.124024 1.72852zm-1.603515 1.6582c-.0056.67393.03574 1.0362.08398 1.51563h.263672c-.04897-.48751-.08694-.88115-.08398-1.51368.003-.63253.101771-1.82769.341797-2.73926-.504114.8602-.599898 2.06338-.605469 2.73731zm-22.638672 3.32617c.255237 2.45028 1.693359 4.09961 1.693359 4.09961l.201172-.17383s-1.384967-1.59256-1.630859-3.95312c-.247882-2.37967.01758-5.39844.01758-5.39844s-.534498 2.99459-.281249 5.42578zm-2.861747 9.0699c-1.163741-.66651-3.351072-2.69674-3.86091-5.26912-.509838-2.57238-.433455-3.6771.248047-5.42285-.844811 1.63144-1.049417 2.94789-.505859 5.47949.543558 2.5316 2.874373 4.80695 4.048549 5.47615-.01992.0928-.02351.18958-.04074.28557-.35529 1.97948-.04883 3.57227-.04883 3.57227l.259766-.0508s-.297465-1.54527.04883-3.47461c.345244-1.9235 1.173828-3.28126 1.173828-3.28126s-.904624 1.0333-1.322684 2.68514zm14.287528-5.62454.261719-.0352c-.153429-1.09007-.276889-1.54433-.681641-2.47166.150555.99863.267799 1.42606.419922 2.50686zm-20.193359.95113h.265625s.0043-2.20168.114257-3.21875c-.386024 1.03816-.379882 3.21875-.379882 3.21875zm19.017578 1.30661.109375-.24024s-1.790127-.7979-2.360352-3.1709c-.128848 2.07741 2.250977 3.41114 2.250977 3.41114zm-23.603516-.78122.07422.2539s.630195-.25594 1.377511-1.08635c-.886268.60064-1.45173.83245-1.451731.83245zm11.701172 7.29101.255859.0664c.415855-1.59414 1.297499-2.25433 1.755859-3.40723-.660006.96779-1.577409 1.67594-2.011718 3.34082zM33.6875 134.81932c-.21542-5.08111-1.308857-7.73284-1.337891-7.82325.715683-.41399 1.502735-1.21575 2.103516-2.34375.623989-1.17157 1.043416-2.64921.941406-4.25586v.00002l-.263672.0176c.09844 1.55048-.308329 2.97965-.912109 4.11328-.60378 1.13363-1.445814 1.89863-2.142857 2.33342 0 0 1.0654 2.83033 1.611607 7.95854zm27.960938-9.50291-.195313-.17774c-1.135357 1.26021-3.150391 1.64844-3.150391 1.64844s2.118711-.10879 3.345704-1.4707zm-12.265626 3.36328.263672-.006c.02171-1.12045.101549-2.24268.566406-3.29095-.663716.91227-.848492 2.28469-.830078 3.29695zm9.132811-1.0068s1.684747.53316 3.166014-.38183c.05538.0739.689393.91731 1.101562 1.61914l.228516-.13477c-.444116-.75623-1.205744-1.85282-1.205744-1.85282-1.485576.93854-3.290348.75028-3.290348.75028zm-5.07617 3.99117.232422-.12695c-1.207725-2.23156-.652344-4.04883-.652344-4.04883s-.835987 1.85519.419922 4.17578zm4.546875-1.91214c.237915.23575.452259.44677.59961 1.1543l.259765-.0547c-.156456-.75124-.43301-1.04849-.673828-1.28711-.240818-.23862-.44038-.41247-.692383-1.02441.0015.70906.268921.97618.506836 1.21192zm-28.957031 1.26175.244141.0996c.567815-1.3796 1.155383-1.77475 2.358398-2.28222-1.309201.26475-2.015715.75684-2.602539 2.18262zm1.125001 3.96094.263672-.0273c-.175083-1.78588.134675-2.47141 1.177734-4.02639-1.288827.88323-1.620677 2.2251-1.441406 4.05369zm7.61328 2.45109c-.423024-.0299-.926952-.14457-1.263672-.44922-.326935-.2958-.489944-.87894-.554687-1.39258-.06474-.51363-.170897-.95308-.170897-.95308s-.160917.4458-.09278.98637c.06814.54056.223419 1.17917.640625 1.55664.40742.36862.967876.48352 1.421875.51562.406103.0287.663311-.0124.728515-.0215.0509.0525.566831.59478.488282 1.3418l.263672.0293c.09759-.92808-.625333-1.69042-.625333-1.69042s-.412579.10697-.835603.0772z" transform="matrix(-1 0 0 1 193.61632 0)"/>
    </g>
    <g>
      <path style="font-variation-settings:normal;opacity:1;vector-effect:none;fill:#ececec;fill-opacity:1;stroke:none;stroke-width:.529167;stroke-linecap:butt;stroke-linejoin:miter;stroke-miterlimit:4;stroke-dasharray:none;stroke-dashoffset:0;stroke-opacity:1;stop-color:#000;stop-opacity:1" d="M68.744421 68.41369v43.23103c0 17.36801 11.681355 29.48214 28.063738 29.48214 16.382381 0 28.063741-12.11413 28.063741-29.48214V68.41369Z"/>
      <path style="font-variation-settings:normal;opacity:1;vector-effect:none;fill:#3973c6;fill-opacity:1;stroke:#000;stroke-width:1;stroke-linecap:butt;stroke-linejoin:miter;stroke-miterlimit:4;stroke-dasharray:none;stroke-dashoffset:0;stroke-opacity:1;stop-color:#000;stop-opacity:1" d="M334.40625 312.48047v41.97656h-74.58398v20.98828h95.57226v-41.97656h20.98828V375.44531h95.57422v-20.98828h-74.58594v-41.97656zm-74.58398 83.95312v20.98829h212.13476v-20.98829zm.96484 41.97657c.87091 7.31575 2.31814 14.32912 4.31055 20.98828h201.58203c1.9924-6.65916 3.43963-13.67253 4.31054-20.98828z" transform="scale(.26458)"/>
      <path style="font-variation-settings:normal;opacity:1;vector-effect:none;fill:none;fill-opacity:1;stroke:#000;stroke-width:.529167;stroke-linecap:butt;stroke-linejoin:miter;stroke-miterlimit:4;stroke-dasharray:none;stroke-dashoffset:0;stroke-opacity:1;stop-color:#000;stop-opacity:1" d="M68.744421 68.41369v43.23103c0 17.36801 11.68135 29.48214 28.063738 29.48214 16.382381 0 28.063741-12.11413 28.063741-29.48214V68.41369Z"/>
    </g>
  </g>
</svg>
